<?xml version="1.0" encoding="utf-8"?>
<!-- Generator: Adobe Illustrator 27.4.0, SVG Export Plug-In . SVG Version: 6.00 Build 0)  -->
<svg version="1.1" id="Layer_1" xmlns="http://www.w3.org/2000/svg" xmlns:xlink="http://www.w3.org/1999/xlink" x="0px" y="0px"
	 viewBox="0 0 66 66" style="enable-background:new 0 0 66 66;" xml:space="preserve">
<style type="text/css">
	.st0{clip-path:url(#SVGID_00000034792773124611544410000012155322988466951049_);}
	.st1{fill-rule:evenodd;clip-rule:evenodd;fill:#202A35;}
</style>
<g>
	<defs>
		<rect id="SVGID_1_" width="66" height="66"/>
	</defs>
	<clipPath id="SVGID_00000083089236045748322740000013938639741979571361_">
		<use xlink:href="#SVGID_1_"  style="overflow:visible;"/>
	</clipPath>
	<g style="clip-path:url(#SVGID_00000083089236045748322740000013938639741979571361_);">
		<path class="st1" d="M32.6,49.8c-2-7.9-8.4-14.2-16.4-16.1c-0.5-0.1-0.5-0.9,0-1c7.9-2,14.2-8.4,16.1-16.4c0.1-0.5,0.9-0.5,1,0
			c2,7.9,8.4,14.2,16.4,16.1c0.5,0.1,0.5,0.9,0,1c-7.9,2-14.2,8.4-16.1,16.4C33.5,50.3,32.7,50.3,32.6,49.8z M65.5,11h-32
			c-0.3,0-0.5-0.2-0.5-0.5c-0.1-3.7-1.1-7.2-2.8-10.2C30.1,0.1,29.9,0,29.7,0H11.5C11.2,0,11,0.2,11,0.5v32c0,0.3-0.2,0.5-0.5,0.5
			c-3.7,0.1-7.2,1.1-10.2,2.8C0.1,35.9,0,36.1,0,36.3v18.2C0,54.8,0.2,55,0.5,55h32c0.3,0,0.5,0.2,0.5,0.5c0.1,3.7,1.1,7.2,2.8,10.2
			c0.1,0.2,0.3,0.3,0.5,0.3h18.2c0.3,0,0.5-0.2,0.5-0.5v-32c0-0.3,0.2-0.5,0.5-0.5c3.7-0.1,7.2-1.1,10.2-2.8
			c0.2-0.1,0.3-0.3,0.3-0.5V11.5C66,11.2,65.8,11,65.5,11z"/>
	</g>
</g>
</svg>
