<svg width="66" height="66" viewBox="0 0 66 66" fill="none" xmlns="http://www.w3.org/2000/svg">
<g clip-path="url(#clip0_7_391)">
<path fill-rule="evenodd" clip-rule="evenodd" d="M32.6167 49.7638C30.6301 41.8161 24.2354 35.5612 16.2397 33.6253C15.7092 33.497 15.7069 32.7492 16.236 32.6167C24.1837 30.63 30.4386 24.2353 32.3745 16.2396C32.5031 15.7095 33.2509 15.7068 33.3831 16.2363C35.3698 24.184 41.7645 30.4385 49.7602 32.3745C50.2903 32.503 50.293 33.2509 49.7638 33.3831C41.8162 35.3701 35.5613 41.7648 33.6253 49.7605C33.4968 50.2906 32.7489 50.2929 32.6167 49.7638ZM65.4786 10.9999H33.5143C33.229 10.9999 33.0008 10.7703 32.9941 10.4854C32.9086 6.77842 31.9017 3.30109 30.2007 0.265431C30.1082 0.100759 29.9326 -0.000297546 29.7438 -0.000297546H11.5212C11.2332 -0.000297546 11 0.233291 11 0.521219V32.4855C11 32.7708 10.7704 32.9994 10.4851 33.006C6.77848 33.0915 3.30115 34.0981 0.265153 35.7991C0.100812 35.8916 -0.000244141 36.0672 -0.000244141 36.256V54.4786C-0.000244141 54.7666 0.233345 55.0001 0.521272 55.0001H32.4855C32.7708 55.0001 32.9994 55.2294 33.0061 55.5147C33.0915 59.2213 34.0981 62.699 35.7992 65.7346C35.8916 65.8993 36.0672 66 36.2561 66H54.4787C54.7666 66 54.9999 65.7664 54.9999 65.4785V33.5143C54.9999 33.229 55.2295 33.0007 55.5144 32.9941C59.2214 32.9086 62.6987 31.9017 65.7347 30.2006C65.8994 30.1082 66.0001 29.9326 66.0001 29.7437V11.5211C66.0001 11.2332 65.7665 10.9999 65.4786 10.9999Z" fill="white"/>
</g>
<defs>
<clipPath id="clip0_7_391">
<rect width="66" height="66" fill="white"/>
</clipPath>
</defs>
</svg>
