<?xml version="1.0" encoding="utf-8"?>
<!-- Generator: Adobe Illustrator 27.4.0, SVG Export Plug-In . SVG Version: 6.00 Build 0)  -->
<svg version="1.1" id="Layer_1" xmlns="http://www.w3.org/2000/svg" xmlns:xlink="http://www.w3.org/1999/xlink" x="0px" y="0px"
	 viewBox="0 0 66 66" style="enable-background:new 0 0 66 66;" xml:space="preserve">
<style type="text/css">
	.st0{clip-path:url(#SVGID_00000059288472413379674660000011312889982826985616_);}
	.st1{fill-rule:evenodd;clip-rule:evenodd;fill:#FFFFFF;}
</style>
<g>
	<defs>
		<rect id="SVGID_1_" width="66" height="66"/>
	</defs>
	<clipPath id="SVGID_00000000181640397255738850000011299076915300275587_">
		<use xlink:href="#SVGID_1_"  style="overflow:visible;"/>
	</clipPath>
	<g style="clip-path:url(#SVGID_00000000181640397255738850000011299076915300275587_);">
		<path class="st1" d="M41.5,6.1c0.2,0,0.4,0.2,0.4,0.4C41.7,16.2,33.8,24,24,24C14.3,24,6.3,16.2,6.1,6.5c0-0.2,0.2-0.4,0.4-0.4
			H41.5z M24.5,59.9c-0.2,0-0.4-0.2-0.4-0.4C24.3,49.8,32.2,42,42,42c9.8,0,17.7,7.8,17.9,17.5c0,0.2-0.2,0.4-0.4,0.4H24.5z
			 M59.9,41.5c0,0.2-0.2,0.4-0.4,0.4C49.8,41.7,42,33.8,42,24c0-9.8,7.8-17.7,17.5-17.9c0.2,0,0.4,0.2,0.4,0.4V41.5z M6.1,24.5
			c0-0.2,0.2-0.4,0.4-0.4C16.2,24.3,24,32.2,24,42c0,9.8-7.8,17.7-17.5,17.9c-0.2,0-0.4-0.2-0.4-0.4V24.5z"/>
	</g>
</g>
</svg>
