<svg width="66" height="66" viewBox="0 0 66 66" fill="none" xmlns="http://www.w3.org/2000/svg">
<g clip-path="url(#clip0_7_390)">
<path fill-rule="evenodd" clip-rule="evenodd" d="M22.0982 43.4787V22.5213C22.0982 22.2334 22.3325 22.0001 22.6217 22.0001H43.3783C43.6675 22.0001 43.9022 22.2334 43.9022 22.5213V43.4787C43.9022 43.7666 43.6675 43.9999 43.3783 43.9999H22.6217C22.3325 43.9999 22.0982 43.7666 22.0982 43.4787ZM66 33C66 24.2154 60.8258 16.6382 53.3483 13.1118C53.2384 13.0601 53.1512 12.972 53.1007 12.862C49.6148 5.27447 41.9286 0 33 0C24.0714 0 16.3855 5.27447 12.8993 12.862C12.8491 12.972 12.7616 13.0601 12.6521 13.1118C5.17451 16.6382 0 24.2154 0 33C0 41.7846 5.17451 49.3618 12.6521 52.8882C12.7616 52.9399 12.8491 53.028 12.8993 53.138C16.3855 60.7255 24.0717 66 33 66C41.9286 66 49.6148 60.7255 53.1007 53.138C53.1512 53.028 53.2384 52.9399 53.3483 52.8882C60.8258 49.3618 66 41.7846 66 33Z" fill="white"/>
</g>
<defs>
<clipPath id="clip0_7_390">
<rect width="66" height="66" fill="white"/>
</clipPath>
</defs>
</svg>
