<?xml version="1.0" encoding="utf-8"?>
<!-- Generator: Adobe Illustrator 27.4.0, SVG Export Plug-In . SVG Version: 6.00 Build 0)  -->
<svg version="1.1" id="Layer_1" xmlns="http://www.w3.org/2000/svg" xmlns:xlink="http://www.w3.org/1999/xlink" x="0px" y="0px"
	 viewBox="0 0 66 66" style="enable-background:new 0 0 66 66;" xml:space="preserve">
<style type="text/css">
	.st0{clip-path:url(#SVGID_00000012448377222104850860000014021745810199467711_);}
	.st1{fill-rule:evenodd;clip-rule:evenodd;fill:#202A35;}
</style>
<g>
	<defs>
		<rect id="SVGID_1_" width="66" height="66"/>
	</defs>
	<clipPath id="SVGID_00000103978852911821114110000006051180591424338561_">
		<use xlink:href="#SVGID_1_"  style="overflow:visible;"/>
	</clipPath>
	<g style="clip-path:url(#SVGID_00000103978852911821114110000006051180591424338561_);">
		<path class="st1" d="M33,33C33,33,33,33,33,33C33,33,33,33,33,33C33,33,33,33,33,33C33,33,33,33,33,33z M65.5,33.2L39.8,33
			c-0.6,0-0.7-0.8-0.1-1c8.9-2.8,15.4-11,15.5-20.8c0-4-1-7.7-2.8-10.9C52.3,0.1,52.1,0,51.9,0H33.8c-0.3,0-0.5,0.2-0.5,0.5L33,26.2
			c0,0.6-0.8,0.7-1,0.1c-2.8-8.9-11-15.4-20.8-15.5c-4,0-7.7,1-10.9,2.8C0.1,13.7,0,13.9,0,14.1v18.1c0,0.3,0.2,0.5,0.5,0.5L26.2,33
			c0.6,0,0.7,0.8,0.1,1c-8.9,2.8-15.4,11-15.5,20.8c0,4,1,7.7,2.8,10.9c0.1,0.2,0.3,0.3,0.5,0.3h18.1c0.3,0,0.5-0.2,0.5-0.5L33,39.8
			c0-0.6,0.8-0.7,1-0.1c2.8,8.9,11,15.4,20.8,15.5c4,0,7.7-1,10.9-2.8c0.2-0.1,0.3-0.3,0.3-0.5V33.8C66,33.5,65.8,33.2,65.5,33.2z"
			/>
	</g>
</g>
</svg>
