<svg width="352" height="124" viewBox="0 0 352 124" fill="none" xmlns="http://www.w3.org/2000/svg">
<path fill-rule="evenodd" clip-rule="evenodd" d="M149.822 28.5449C151.035 29.8008 152.608 30.4288 154.542 30.4288C158.836 30.4288 161.819 27.2409 161.819 23.6714C161.819 19.5994 159.183 16.8029 154.911 16.8029C152.976 16.8029 151.035 17.542 149.822 18.7986C148.61 20.0545 148.003 21.679 148.003 23.6714C148.003 25.6645 148.61 27.289 149.822 28.5449ZM148.548 33.4399C146.946 32.5018 145.697 31.1802 144.802 29.4764C143.907 27.7726 143.46 25.8374 143.46 23.6714C143.46 21.5061 143.907 19.5715 144.802 17.867C145.697 16.1639 147.218 14.8423 148.82 13.9036C150.422 12.9656 152.846 12.5008 154.925 12.4956C157.482 12.4904 162.507 13.2945 164.764 17.1117C165.7 18.6933 166.237 20.8775 166.237 23.3893V34.3707H161.906L161.863 31.5124C161.026 32.5519 159.929 33.3677 158.572 33.9592C157.215 34.5508 155.714 34.8472 154.069 34.8472C151.991 34.8472 150.15 34.3779 148.548 33.4399Z" fill="black"/>
<path fill-rule="evenodd" clip-rule="evenodd" d="M234.216 28.5449C235.428 29.8008 237.001 30.4288 238.935 30.4288C243.229 30.4288 246.212 27.2409 246.212 23.6714C246.212 19.5994 243.576 16.8029 239.304 16.8029C237.37 16.8029 235.428 17.542 234.216 18.7986C233.003 20.0545 232.397 21.679 232.397 23.6714C232.397 25.6645 233.003 27.289 234.216 28.5449ZM232.941 33.4398C231.339 32.5018 230.09 31.1802 229.196 29.4764C228.3 27.7726 227.853 25.8374 227.853 23.6714C227.853 21.5061 228.3 19.5715 229.196 17.867C230.09 16.1639 231.611 14.8423 233.214 13.9036C234.815 12.9656 237.239 12.5008 239.318 12.4956C241.875 12.4904 246.901 13.2945 249.157 17.1117C250.093 18.6933 250.63 20.8774 250.63 23.3893V34.3707H246.3L246.257 31.5124C245.419 32.5519 244.322 33.3677 242.965 33.9592C241.609 34.5508 240.107 34.8472 238.462 34.8472C236.384 34.8472 234.544 34.3779 232.941 33.4398Z" fill="black"/>
<path fill-rule="evenodd" clip-rule="evenodd" d="M210 64.0985C211.213 65.3544 212.786 65.9824 214.72 65.9824C219.014 65.9824 221.996 62.7945 221.996 59.225C221.996 55.153 219.361 52.3565 215.089 52.3565C213.154 52.3565 211.213 53.0956 210 54.3521C208.787 55.6081 208.181 57.2326 208.181 59.225C208.181 61.2181 208.787 62.8426 210 64.0985ZM208.726 68.9934C207.123 68.0554 205.875 66.7338 204.98 65.03C204.085 63.3262 203.638 61.391 203.638 59.225C203.638 57.0596 204.085 55.1251 204.98 53.4206C205.875 51.7175 207.396 50.3959 208.998 49.4572C210.6 48.5192 213.024 48.0544 215.102 48.0492C217.659 48.044 222.685 48.8481 224.942 52.6652C225.878 54.2468 226.414 56.431 226.414 58.9429V69.9243H222.084L222.041 67.066C221.203 68.1055 220.107 68.9213 218.75 69.5128C217.393 70.1044 215.892 70.4008 214.247 70.4008C212.168 70.4008 210.328 69.9315 208.726 68.9934Z" fill="black"/>
<path fill-rule="evenodd" clip-rule="evenodd" d="M172.125 34.371H176.975V4.04904H172.125V34.371Z" fill="black"/>
<path fill-rule="evenodd" clip-rule="evenodd" d="M198.972 21.7225C198.798 20.1922 198.156 18.9792 197.045 18.0841C195.933 17.1889 194.497 16.7411 192.736 16.7411C191.062 16.7411 189.691 17.174 188.623 18.0405C187.554 18.9071 186.862 20.1344 186.544 21.7225H198.972ZM186.998 33.5698C185.252 32.6318 183.903 31.3102 182.95 29.6064C181.997 27.9026 181.521 25.9244 181.521 23.672C181.521 21.4774 181.982 19.5422 182.907 17.867C183.831 16.1931 185.13 14.8858 186.804 13.9471C188.478 13.0091 190.412 12.5391 192.607 12.5391C196.07 12.5391 198.784 13.5356 200.747 15.528C202.71 17.5205 203.691 20.2787 203.691 23.8013C203.691 24.1771 203.663 24.7407 203.605 25.4908H186.501C186.703 27.0503 187.41 28.2926 188.623 29.2163C189.835 30.1407 191.379 30.6023 193.256 30.6023C194.469 30.6023 195.637 30.4007 196.763 29.9958C197.889 29.5921 198.769 29.0577 199.405 28.3934L202.349 31.2523C201.281 32.4075 199.931 33.3169 198.301 33.9813C196.669 34.645 194.945 34.9772 193.126 34.9772C190.788 34.9772 188.745 34.5078 186.998 33.5698Z" fill="black"/>
<path fill-rule="evenodd" clip-rule="evenodd" d="M218.154 30.2125L215.859 26.6606L213.521 30.2125L210.62 34.3709H204.991L212.655 23.3251L205.467 12.9723H211.226L214.257 17.4343L215.859 20.0332L217.504 17.4343L220.536 12.9723H226.208L219.02 23.3251L226.684 34.3709H220.926L218.154 30.2125Z" fill="black"/>
<path fill-rule="evenodd" clip-rule="evenodd" d="M256.518 12.9724H260.849L260.892 15.7878C262.71 13.6218 265.178 12.5395 268.296 12.5395C270.115 12.5395 271.717 12.951 273.103 13.7739C274.488 14.5969 275.556 15.7599 276.307 17.2609C277.057 18.7625 277.433 20.5248 277.433 22.5452V34.3711H272.583V22.8488C272.583 20.9721 272.121 19.5133 271.198 18.4739C270.273 17.4338 269.003 16.9144 267.387 16.9144C265.625 16.9144 264.183 17.4988 263.057 18.6689C261.931 19.8383 261.368 21.3185 261.368 23.1088V34.3711H256.518V12.9724Z" fill="black"/>
<path fill-rule="evenodd" clip-rule="evenodd" d="M288.257 28.5449C289.47 29.8008 291.043 30.4288 292.977 30.4288C294.911 30.4288 296.485 29.8008 297.697 28.5449C298.909 27.289 299.516 25.6645 299.516 23.6714C299.516 21.679 298.909 20.0545 297.697 18.7985C296.485 17.542 294.911 16.914 292.977 16.914C291.043 16.914 289.47 17.542 288.257 18.7985C287.045 20.0545 286.438 21.679 286.438 23.6714C286.438 25.6645 287.045 27.289 288.257 28.5449ZM286.698 33.4613C285.111 32.5375 283.863 31.2303 282.953 29.5414C282.044 27.8519 281.589 25.8959 281.589 23.6714C281.589 21.4482 282.044 19.4915 282.953 17.802C283.863 16.1125 285.111 14.8065 286.698 13.8821C288.286 12.9584 290.09 12.4956 292.111 12.4956C293.641 12.4956 295.041 12.7413 296.312 13.2321C297.581 13.7235 298.65 14.4015 299.516 15.2681V4.04871H304.366V34.3707H300.035L299.992 31.5124C299.154 32.5518 298.05 33.3677 296.68 33.9592C295.308 34.5508 293.785 34.8472 292.111 34.8472C290.09 34.8472 288.286 34.385 286.698 33.4613Z" fill="black"/>
<path fill-rule="evenodd" clip-rule="evenodd" d="M326.319 21.7225C326.145 20.1922 325.502 18.9792 324.391 18.0841C323.28 17.1889 321.844 16.7411 320.083 16.7411C318.408 16.7411 317.037 17.174 315.97 18.0405C314.901 18.9071 314.209 20.1344 313.891 21.7225H326.319ZM314.346 33.5698C312.599 32.6318 311.249 31.3102 310.297 29.6064C309.345 27.9026 308.869 25.9244 308.869 23.672C308.869 21.4774 309.33 19.5422 310.254 17.867C311.177 16.1931 312.476 14.8858 314.151 13.9471C315.825 13.0091 317.759 12.5391 319.954 12.5391C323.417 12.5391 326.131 13.5356 328.094 15.528C330.056 17.5205 331.038 20.2787 331.038 23.8013C331.038 24.1771 331.01 24.7407 330.952 25.4908H313.848C314.05 27.0503 314.757 28.2926 315.97 29.2163C317.182 30.1407 318.726 30.6023 320.603 30.6023C321.815 30.6023 322.984 30.4007 324.11 29.9958C325.236 29.5921 326.116 29.0577 326.751 28.3934L329.696 31.2523C328.627 32.4075 327.278 33.3169 325.647 33.9813C324.016 34.645 322.292 34.9772 320.473 34.9772C318.135 34.9772 316.092 34.5078 314.346 33.5698Z" fill="black"/>
<path fill-rule="evenodd" clip-rule="evenodd" d="M335.368 12.9724H339.698L339.741 16.2643C340.578 14.9941 341.531 14.0554 342.599 13.4489C343.666 12.8424 344.879 12.5395 346.236 12.5395C347.276 12.5395 348.278 12.7059 349.246 13.0374C350.213 13.3696 351.013 13.8247 351.649 14.4019L349.484 18.3439C348.329 17.5638 347.131 17.1744 345.889 17.1744C344.158 17.1744 342.779 17.7803 341.755 18.9933C340.729 20.2063 340.217 21.8522 340.217 23.9318V34.3711H335.368V12.9724Z" fill="black"/>
<path fill-rule="evenodd" clip-rule="evenodd" d="M145.485 67.1953L147.737 63.687C148.689 64.4378 149.829 65.0228 151.157 65.4415C152.485 65.8601 153.857 66.0688 155.271 66.0688C156.628 66.0688 157.681 65.8601 158.432 65.4415C159.183 65.0228 159.558 64.4228 159.558 63.6434C159.558 62.8926 159.19 62.3153 158.454 61.911C157.718 61.5067 156.527 61.2174 154.882 61.0445C152.081 60.7845 149.923 60.0843 148.408 58.9435C146.893 57.8033 146.135 56.3088 146.135 54.46C146.135 53.1606 146.524 52.0204 147.304 51.0381C148.083 50.0565 149.172 49.2914 150.573 48.7421C151.973 48.1941 153.583 47.9191 155.401 47.9191C158.692 47.9191 161.521 48.7421 163.888 50.3887L161.766 53.8535C159.861 52.6412 157.811 52.0347 155.618 52.0347C154.087 52.0347 152.918 52.2446 152.11 52.6626C151.302 53.0813 150.898 53.6806 150.898 54.46C150.898 55.1536 151.237 55.6951 151.916 56.0845C152.594 56.4746 153.713 56.756 155.271 56.929C158.446 57.2754 160.756 57.984 162.199 59.052C163.642 60.1207 164.364 61.6659 164.364 63.687C164.364 65.015 163.982 66.1774 163.217 67.1739C162.452 68.1704 161.369 68.9499 159.97 69.5128C158.569 70.0758 156.96 70.3572 155.141 70.3572C151.532 70.3572 148.314 69.3035 145.485 67.1953Z" fill="black"/>
<path fill-rule="evenodd" clip-rule="evenodd" d="M172.851 68.1919C171.639 66.8924 171.033 64.9864 171.033 62.474V52.5541H167.006V48.4392H171.033V42.8513L175.839 42.3312V48.4392H181.988V52.5541H175.839V62.474C175.839 63.5719 176.091 64.4092 176.597 64.9864C177.102 65.5643 177.845 65.8523 178.827 65.8523C179.693 65.8523 180.588 65.6365 181.512 65.2029L182.854 69.1013C182.016 69.4771 181.23 69.7442 180.494 69.9028C179.758 70.0615 178.942 70.1408 178.047 70.1408C175.796 70.1408 174.064 69.4913 172.851 68.1919Z" fill="black"/>
<path fill-rule="evenodd" clip-rule="evenodd" d="M186.448 48.4392H190.778L190.821 51.7311C191.658 50.4609 192.61 49.5222 193.679 48.9157C194.746 48.3092 195.959 48.0063 197.316 48.0063C198.355 48.0063 199.358 48.1727 200.326 48.5042C201.293 48.8364 202.093 49.2915 202.729 49.8687L200.563 53.8107C199.409 53.0306 198.21 52.6412 196.969 52.6412C195.238 52.6412 193.859 53.2471 192.835 54.4601C191.809 55.6731 191.297 57.319 191.297 59.3986V69.8379H186.448V48.4392Z" fill="black"/>
<path fill-rule="evenodd" clip-rule="evenodd" d="M235.353 68.1919C234.14 66.8924 233.534 64.9864 233.534 62.474V52.5541H229.508V48.4392H233.534V42.8513L238.34 42.3312V48.4392H244.489V52.5541H238.34V62.474C238.34 63.5719 238.593 64.4092 239.098 64.9864C239.603 65.5643 240.346 65.8523 241.328 65.8523C242.194 65.8523 243.089 65.6365 244.013 65.2029L245.355 69.1013C244.518 69.4771 243.731 69.7442 242.995 69.9028C242.26 70.0615 241.443 70.1408 240.549 70.1408C238.297 70.1408 236.565 69.4913 235.353 68.1919Z" fill="black"/>
<path fill-rule="evenodd" clip-rule="evenodd" d="M265.013 57.1892C264.84 55.659 264.197 54.446 263.086 53.5509C261.975 52.6557 260.539 52.2078 258.778 52.2078C257.103 52.2078 255.732 52.6408 254.664 53.5073C253.596 54.3738 252.903 55.6011 252.586 57.1892H265.013ZM253.04 69.0366C251.294 68.0985 249.944 66.777 248.991 65.0732C248.039 63.3694 247.563 61.3912 247.563 59.1388C247.563 56.9442 248.024 55.0089 248.949 53.3337C249.872 51.6598 251.171 50.3526 252.845 49.4139C254.519 48.4758 256.454 48.0059 258.648 48.0059C262.112 48.0059 264.825 49.0024 266.789 50.9948C268.751 52.9873 269.733 55.7455 269.733 59.2688C269.733 59.6439 269.704 60.2068 269.646 60.9576H252.543C252.744 62.5171 253.452 63.7594 254.664 64.6831C255.876 65.6075 257.421 66.069 259.297 66.069C260.51 66.069 261.679 65.8675 262.805 65.4625C263.931 65.0589 264.81 64.5245 265.446 63.8601L268.391 66.7191C267.322 67.8743 265.972 68.7837 264.342 69.448C262.711 70.1118 260.986 70.4446 259.168 70.4446C256.829 70.4446 254.786 69.9746 253.04 69.0366Z" fill="black"/>
<path fill-rule="evenodd" clip-rule="evenodd" d="M279.367 63.2969C280.594 64.452 282.203 65.0299 284.195 65.0299C286.187 65.0299 287.795 64.452 289.023 63.2969C290.25 62.1424 290.863 60.6264 290.863 58.7484C290.863 56.8424 290.257 55.3051 289.044 54.1356C287.833 52.9662 286.215 52.3811 284.195 52.3811C282.174 52.3811 280.558 52.9662 279.345 54.1356C278.133 55.3051 277.526 56.8424 277.526 58.7484C277.526 60.6264 278.14 62.1424 279.367 63.2969ZM278.09 81.4686C276.357 80.6736 275.036 79.5477 274.127 78.0896C273.218 76.6309 272.807 74.9492 272.893 73.0432H277.656C277.598 74.6313 278.168 75.9022 279.367 76.8552C280.564 77.8082 282.174 78.2846 284.195 78.2846C286.158 78.2846 287.73 77.866 288.914 77.0287C290.098 76.1908 290.69 75.0935 290.69 73.7362C290.69 72.3789 290.12 71.3173 288.98 70.5528C287.839 69.7877 286.274 69.4048 284.281 69.4048C281.943 69.4048 279.901 68.9712 278.154 68.1047C276.407 67.2388 275.058 65.9972 274.106 64.3799C273.153 62.7632 272.677 60.8858 272.677 58.7484C272.677 56.6988 273.167 54.85 274.149 53.2041C275.13 51.5581 276.494 50.2736 278.241 49.3486C279.987 48.4248 281.943 47.9626 284.108 47.9626C286.389 47.9626 288.322 48.4391 289.911 49.3921L292.639 46.0567L296.146 48.7421L293.158 52.2075C294.053 53.2769 294.702 54.3163 295.107 55.3265C295.511 56.338 295.713 57.4782 295.713 58.7484C295.713 60.655 295.251 62.3081 294.327 63.7084C293.403 65.1092 292.047 66.1994 290.257 66.9788C291.96 67.6146 293.273 68.5097 294.197 69.6642C295.121 70.8194 295.583 72.191 295.583 73.7797C295.583 75.57 295.113 77.1366 294.175 78.4797C293.238 79.8227 291.909 80.855 290.192 81.5772C288.475 82.2988 286.475 82.6596 284.195 82.6596C281.857 82.6596 279.822 82.2624 278.09 81.4686Z" fill="black"/>
<path fill-rule="evenodd" clip-rule="evenodd" d="M306.409 69.7078L297.965 48.4392H303.161L306.885 58.1855L309.094 64.337L311.562 58.1855L315.588 48.4392H320.784L307.361 79.7142H302.078L306.409 69.7078Z" fill="black"/>
<path fill-rule="evenodd" clip-rule="evenodd" d="M150.151 99.5018C151.378 100.657 152.987 101.235 154.979 101.235C156.97 101.235 158.579 100.657 159.807 99.5018C161.033 98.3473 161.647 96.8314 161.647 94.9533C161.647 93.0474 161.041 91.51 159.828 90.3405C158.616 89.1711 156.999 88.586 154.979 88.586C152.958 88.586 151.341 89.1711 150.129 90.3405C148.917 91.51 148.31 93.0474 148.31 94.9533C148.31 96.8314 148.923 98.3473 150.151 99.5018ZM148.873 117.674C147.141 116.879 145.82 115.753 144.911 114.295C144.001 112.836 143.591 111.154 143.677 109.248H148.44C148.382 110.836 148.952 112.107 150.151 113.06C151.348 114.013 152.958 114.49 154.979 114.49C156.941 114.49 158.514 114.071 159.698 113.234C160.882 112.396 161.474 111.298 161.474 109.941C161.474 108.584 160.903 107.522 159.763 106.758C158.623 105.993 157.057 105.61 155.065 105.61C152.727 105.61 150.684 105.176 148.938 104.31C147.191 103.444 145.842 102.202 144.89 100.585C143.937 98.9681 143.461 97.0907 143.461 94.9533C143.461 92.9037 143.951 91.0549 144.933 89.409C145.914 87.763 147.278 86.4785 149.025 85.5535C150.771 84.6297 152.727 84.1675 154.892 84.1675C157.172 84.1675 159.106 84.644 160.695 85.597L163.422 82.2616L166.93 84.947L163.942 88.4124C164.836 89.4818 165.486 90.5206 165.89 91.5314C166.294 92.5429 166.497 93.6831 166.497 94.9533C166.497 96.86 166.035 98.513 165.111 99.9133C164.187 101.314 162.83 102.404 161.041 103.184C162.743 103.819 164.057 104.715 164.981 105.869C165.905 107.024 166.367 108.396 166.367 109.985C166.367 111.775 165.898 113.342 164.959 114.685C164.021 116.028 162.693 117.06 160.976 117.782C159.258 118.504 157.259 118.864 154.979 118.864C152.641 118.864 150.606 118.467 148.873 117.674Z" fill="black"/>
<path fill-rule="evenodd" clip-rule="evenodd" d="M171.303 84.644H175.633L175.676 87.9359C176.513 86.6657 177.466 85.727 178.534 85.1205C179.602 84.514 180.814 84.2111 182.172 84.2111C183.21 84.2111 184.213 84.3775 185.181 84.709C186.148 85.0412 186.948 85.4963 187.584 86.0735L185.419 90.0148C184.263 89.2354 183.066 88.8454 181.825 88.8454C180.093 88.8454 178.714 89.4519 177.69 90.6649C176.664 91.8779 176.152 93.5238 176.152 95.6034V106.043H171.303V84.644Z" fill="black"/>
<path fill-rule="evenodd" clip-rule="evenodd" d="M193.797 98.7438C194.344 99.769 195.117 100.585 196.113 101.191C197.109 101.798 198.256 102.101 199.555 102.101C200.855 102.101 202.002 101.798 202.998 101.191C203.994 100.585 204.758 99.769 205.292 98.7438C205.827 97.7193 206.094 96.5856 206.094 95.3434C206.094 94.1024 205.827 92.9681 205.292 91.9429C204.758 90.9184 203.994 90.102 202.998 89.4954C202.002 88.8896 200.855 88.586 199.555 88.586C198.256 88.586 197.109 88.8896 196.113 89.4954C195.117 90.102 194.344 90.9184 193.797 91.9429C193.248 92.9681 192.974 94.1024 192.974 95.3434C192.974 96.5856 193.248 97.7193 193.797 98.7438ZM193.537 105.068C191.805 104.101 190.469 102.772 189.531 101.083C188.593 99.3939 188.124 97.4808 188.124 95.3434C188.124 93.2066 188.593 91.2935 189.531 89.604C190.469 87.9145 191.805 86.5864 193.537 85.6185C195.268 84.6519 197.275 84.1676 199.555 84.1676C201.807 84.1676 203.799 84.6519 205.531 85.6185C207.263 86.5864 208.598 87.9145 209.536 89.604C210.474 91.2935 210.944 93.2066 210.944 95.3434C210.944 97.4808 210.474 99.3939 209.536 101.083C208.598 102.772 207.263 104.101 205.531 105.068C203.799 106.036 201.807 106.519 199.555 106.519C197.275 106.519 195.268 106.036 193.537 105.068Z" fill="black"/>
<path fill-rule="evenodd" clip-rule="evenodd" d="M219.018 105.241C217.661 104.418 216.615 103.256 215.879 101.754C215.143 100.253 214.775 98.4909 214.775 96.4699V84.644H219.625V96.1663C219.625 98.0437 220.072 99.5017 220.967 100.541C221.861 101.581 223.089 102.101 224.648 102.101C226.408 102.101 227.837 101.523 228.934 100.368C230.031 99.2131 230.58 97.7258 230.58 95.9063V84.644H235.429V106.043H231.099L231.056 103.27C229.237 105.408 226.813 106.476 223.781 106.476C221.963 106.476 220.375 106.064 219.018 105.241Z" fill="black"/>
<path fill-rule="evenodd" clip-rule="evenodd" d="M248.008 100.216C249.235 101.473 250.801 102.101 252.706 102.101C254.64 102.101 256.214 101.473 257.426 100.216C258.638 98.9605 259.244 97.336 259.244 95.3435C259.244 93.3504 258.638 91.7266 257.426 90.47C256.214 89.2141 254.64 88.5855 252.706 88.5855C250.801 88.5855 249.235 89.2141 248.008 90.47C246.781 91.7266 246.168 93.3504 246.168 95.3435C246.168 97.336 246.781 98.9605 248.008 100.216ZM241.318 84.6442H245.648L245.691 87.5025C246.528 86.4631 247.625 85.6479 248.983 85.0557C250.339 84.4641 251.84 84.1677 253.486 84.1677C255.564 84.1677 257.404 84.637 259.007 85.5751C260.608 86.5144 261.857 87.8353 262.752 89.5385C263.646 91.243 264.094 93.1775 264.094 95.3435C264.094 97.5089 263.646 99.4441 262.752 101.148C261.857 102.852 260.608 104.173 259.007 105.111C257.404 106.049 255.564 106.519 253.486 106.519C252.013 106.519 250.634 106.274 249.35 105.783C248.066 105.292 247.005 104.599 246.168 103.704V115.919H241.318V84.6442Z" fill="black"/>
<path fill-rule="evenodd" clip-rule="evenodd" d="M73.5718 8.46365C62.2913 19.7484 62.2913 38.044 73.5718 49.3288C84.8524 60.6135 103.141 60.6135 114.422 49.3288L73.5718 8.46365Z" fill="#D55127"/>
<path fill-rule="evenodd" clip-rule="evenodd" d="M1.92798 0.000183105V57.7921C15.3251 57.7921 26.5915 48.6677 29.8572 36.2924C29.9534 35.9278 30.4902 35.9999 30.4902 36.3767V57.7921C46.4431 57.7921 59.3755 44.8552 59.3755 28.8963C59.3755 12.9374 46.4431 0.000183105 30.4902 0.000183105V21.4159C30.4902 21.7927 29.9534 21.8644 29.8572 21.5003C26.5915 9.12459 15.3251 0.000183105 1.92798 0.000183105Z" fill="#D55127"/>
<path fill-rule="evenodd" clip-rule="evenodd" d="M93.8755 122.645C109.828 122.645 122.761 109.708 122.761 93.7493H101.353C100.976 93.7493 100.905 93.2126 101.269 93.1164C113.64 89.849 122.761 78.5785 122.761 65.1763H64.9902C64.9902 78.5785 74.1112 89.849 86.4822 93.1164C86.8462 93.2126 86.7746 93.7493 86.3979 93.7493H64.9902C64.9902 109.708 77.9226 122.645 93.8755 122.645Z" fill="#D55127"/>
<path fill-rule="evenodd" clip-rule="evenodd" d="M28.8854 86.5919V65.1762C12.9325 65.1762 0.00012207 78.1134 0.00012207 94.0723C0.00012207 110.031 12.9325 122.968 28.8854 122.968V101.553C28.8854 101.176 29.4222 101.104 29.5184 101.468C32.7841 113.844 44.0505 122.968 57.4476 122.968V65.1762C44.0505 65.1762 32.7841 74.3006 29.5184 86.6763C29.4222 87.0404 28.8854 86.9687 28.8854 86.5919Z" fill="#D55127"/>
</svg>
