<svg width="99" height="99" viewBox="0 0 99 99" fill="none" xmlns="http://www.w3.org/2000/svg">
<g clip-path="url(#clip0_301_6618)">
<path fill-rule="evenodd" clip-rule="evenodd" d="M58.9956 6.78809C49.95 15.8388 49.95 30.5125 58.9956 39.5632C68.0413 48.614 82.7069 48.614 91.7522 39.5632L58.9956 6.78809Z" fill="white"/>
<path fill-rule="evenodd" clip-rule="evenodd" d="M1.54614 0.000244141V46.3512C12.289 46.3512 21.3233 39.0331 23.942 29.1077C24.0192 28.8154 24.4496 28.8732 24.4496 29.1754V46.3512C37.2419 46.3512 47.6121 35.9754 47.6121 23.1759C47.6121 10.3763 37.2419 0.000244141 24.4496 0.000244141V17.1764C24.4496 17.4786 24.0192 17.5361 23.942 17.244C21.3233 7.31832 12.289 0.000244141 1.54614 0.000244141Z" fill="white"/>
<path fill-rule="evenodd" clip-rule="evenodd" d="M75.2768 98.3655C88.069 98.3655 98.4392 87.9895 98.4392 75.1899H81.2729C80.9708 75.1899 80.9134 74.7595 81.2053 74.6823C91.1253 72.0618 98.4392 63.0224 98.4392 52.2734H52.1143C52.1143 63.0224 59.4282 72.0618 69.3482 74.6823C69.6401 74.7595 69.5827 75.1899 69.2807 75.1899H52.1143C52.1143 87.9895 62.4845 98.3655 75.2768 98.3655Z" fill="white"/>
<path fill-rule="evenodd" clip-rule="evenodd" d="M23.1625 69.4496V52.2734C10.3702 52.2734 0 62.6495 0 75.4491C0 88.2486 10.3702 98.6247 23.1625 98.6247V81.4486C23.1625 81.1464 23.593 81.0889 23.6701 81.3809C26.2888 91.3066 35.3231 98.6247 46.066 98.6247V52.2734C35.3231 52.2734 26.2888 59.5915 23.6701 69.5172C23.593 69.8093 23.1625 69.7518 23.1625 69.4496Z" fill="white"/>
</g>
<defs>
<clipPath id="clip0_301_6618">
<rect width="99" height="99" fill="white"/>
</clipPath>
</defs>
</svg>
