<svg width="145" height="51" viewBox="0 0 145 51" fill="none" xmlns="http://www.w3.org/2000/svg">
<path fill-rule="evenodd" clip-rule="evenodd" d="M61.7166 11.7404C62.216 12.2569 62.8641 12.5152 63.6607 12.5152C65.4295 12.5152 66.6582 11.204 66.6582 9.73593C66.6582 8.06117 65.5725 6.91097 63.8127 6.91097C63.0159 6.91097 62.216 7.21496 61.7166 7.73178C61.2171 8.24832 60.9673 8.91646 60.9673 9.73593C60.9673 10.5557 61.2171 11.2238 61.7166 11.7404ZM61.1916 13.7536C60.5315 13.3678 60.0173 12.8242 59.6487 12.1235C59.2799 11.4227 59.0957 10.6268 59.0957 9.73593C59.0957 8.84534 59.2799 8.04967 59.6487 7.34865C60.0173 6.64815 60.6437 6.10461 61.3038 5.71853C61.9636 5.33273 62.9621 5.14156 63.8184 5.13941C64.8717 5.13729 66.9419 5.46801 67.8716 7.03797C68.257 7.68846 68.4781 8.5868 68.4781 9.61989V14.1365H66.6943L66.6766 12.9609C66.3316 13.3884 65.8798 13.7239 65.3209 13.9672C64.7619 14.2105 64.1436 14.3324 63.4658 14.3324C62.6098 14.3324 61.8517 14.1394 61.1916 13.7536Z" fill="white"/>
<path fill-rule="evenodd" clip-rule="evenodd" d="M96.4812 11.7403C96.9807 12.2569 97.6287 12.5152 98.4254 12.5152C100.194 12.5152 101.423 11.204 101.423 9.73593C101.423 8.06117 100.337 6.91097 98.5774 6.91097C97.7805 6.91097 96.9807 7.21497 96.4812 7.73178C95.9817 8.24832 95.732 8.91646 95.732 9.73593C95.732 10.5557 95.9817 11.2238 96.4812 11.7403ZM95.9563 13.7536C95.2962 13.3678 94.7817 12.8242 94.4134 12.1235C94.0445 11.4227 93.8604 10.6268 93.8604 9.73593C93.8604 8.84535 94.0445 8.04967 94.4134 7.34864C94.7817 6.64815 95.4083 6.10461 96.0684 5.71854C96.7283 5.33273 97.7267 5.14156 98.583 5.13941C99.6363 5.13729 101.707 5.46802 102.636 7.03797C103.022 7.68847 103.243 8.5868 103.243 9.61989V14.1365H101.459L101.441 12.9609C101.096 13.3884 100.644 13.7239 100.086 13.9672C99.5266 14.2105 98.9082 14.3324 98.2305 14.3324C97.3744 14.3324 96.6164 14.1394 95.9563 13.7536Z" fill="white"/>
<path fill-rule="evenodd" clip-rule="evenodd" d="M86.5056 26.3632C87.0051 26.8797 87.6532 27.138 88.4498 27.138C90.2186 27.138 91.4472 25.8268 91.4472 24.3587C91.4472 22.684 90.3615 21.5338 88.6018 21.5338C87.8049 21.5338 87.0051 21.8378 86.5056 22.3546C86.0061 22.8711 85.7564 23.5393 85.7564 24.3587C85.7564 25.1785 86.0061 25.8466 86.5056 26.3632ZM85.9807 28.3764C85.3206 27.9906 84.8064 27.447 84.4378 26.7463C84.0689 26.0455 83.8848 25.2496 83.8848 24.3587C83.8848 23.4681 84.0689 22.6725 84.4378 21.9714C84.8064 21.271 85.4328 20.7274 86.0929 20.3413C86.7529 19.9555 87.7511 19.7644 88.6074 19.7622C89.6607 19.7601 91.731 20.0908 92.6606 21.6608C93.0461 22.3113 93.2672 23.2096 93.2672 24.2427V28.7593H91.4834L91.4657 27.5837C91.1207 28.0112 90.6688 28.3467 90.1099 28.59C89.551 28.8333 88.9327 28.9552 88.2549 28.9552C87.3989 28.9552 86.6408 28.7622 85.9807 28.3764Z" fill="white"/>
<path fill-rule="evenodd" clip-rule="evenodd" d="M70.9043 14.1367H72.902V1.66553H70.9043V14.1367Z" fill="white"/>
<path fill-rule="evenodd" clip-rule="evenodd" d="M81.9629 8.93427C81.8915 8.3049 81.6267 7.80599 81.169 7.43783C80.7113 7.06967 80.1194 6.88547 79.3943 6.88547C78.7045 6.88547 78.1397 7.06353 77.6999 7.41992C77.2595 7.77632 76.9745 8.2811 76.8436 8.93427H81.9629ZM77.0307 13.807C76.3114 13.4212 75.7555 12.8776 75.363 12.1768C74.9706 11.4761 74.7744 10.6625 74.7744 9.73609C74.7744 8.83347 74.9645 8.03753 75.3451 7.34854C75.7257 6.66008 76.2608 6.12241 76.9506 5.73634C77.6402 5.35053 78.4368 5.15723 79.341 5.15723C80.7678 5.15723 81.8856 5.5671 82.694 6.38657C83.5026 7.20604 83.9071 8.34045 83.9071 9.78929C83.9071 9.94383 83.8953 10.1756 83.8715 10.4842H76.8256C76.9089 11.1256 77.2004 11.6365 77.6999 12.0164C78.1991 12.3966 78.8351 12.5864 79.6084 12.5864C80.1079 12.5864 80.5892 12.5036 81.0531 12.337C81.5167 12.171 81.8794 11.9512 82.1412 11.6779L83.3541 12.8538C82.914 13.3289 82.358 13.703 81.6864 13.9762C81.0143 14.2492 80.3041 14.3858 79.5549 14.3858C78.5918 14.3858 77.7502 14.1928 77.0307 13.807Z" fill="white"/>
<path fill-rule="evenodd" clip-rule="evenodd" d="M89.8648 12.4262L88.9193 10.9653L87.9562 12.4262L86.761 14.1365H84.4424L87.5994 9.59347L84.6386 5.33545H87.0108L88.2592 7.17062L88.9193 8.23955L89.5971 7.17062L90.8458 5.33545H93.1824L90.2213 9.59347L93.3786 14.1365H91.0064L89.8648 12.4262Z" fill="white"/>
<path fill-rule="evenodd" clip-rule="evenodd" d="M105.668 5.33553H107.452L107.469 6.49349C108.219 5.60263 109.235 5.15747 110.52 5.15747C111.269 5.15747 111.929 5.32671 112.5 5.66519C113.07 6.00367 113.51 6.48199 113.82 7.09933C114.129 7.71694 114.283 8.44176 114.283 9.27272V14.1366H112.286V9.39758C112.286 8.62571 112.095 8.02574 111.715 7.59823C111.334 7.17045 110.811 6.95683 110.145 6.95683C109.419 6.95683 108.825 7.19718 108.361 7.67843C107.898 8.15942 107.666 8.76821 107.666 9.50453V14.1366H105.668V5.33553Z" fill="white"/>
<path fill-rule="evenodd" clip-rule="evenodd" d="M118.742 11.7403C119.242 12.2569 119.89 12.5151 120.686 12.5151C121.483 12.5151 122.131 12.2569 122.631 11.7403C123.13 11.2238 123.38 10.5556 123.38 9.7359C123.38 8.91644 123.13 8.2483 122.631 7.73175C122.131 7.21494 121.483 6.95666 120.686 6.95666C119.89 6.95666 119.242 7.21494 118.742 7.73175C118.243 8.2483 117.993 8.91644 117.993 9.7359C117.993 10.5556 118.243 11.2238 118.742 11.7403ZM118.1 13.7624C117.446 13.3825 116.932 12.8448 116.557 12.1502C116.182 11.4553 115.995 10.6508 115.995 9.7359C115.995 8.82152 116.182 8.01675 116.557 7.32188C116.932 6.627 117.446 6.08987 118.1 5.70968C118.754 5.32976 119.497 5.13939 120.33 5.13939C120.96 5.13939 121.536 5.24046 122.06 5.44232C122.583 5.64444 123.023 5.92331 123.38 6.2797V1.66528H125.378V14.1364H123.594L123.576 12.9608C123.231 13.3883 122.776 13.7239 122.211 13.9672C121.647 14.2105 121.019 14.3324 120.33 14.3324C119.497 14.3324 118.754 14.1423 118.1 13.7624Z" fill="white"/>
<path fill-rule="evenodd" clip-rule="evenodd" d="M134.421 8.93427C134.349 8.3049 134.084 7.80599 133.627 7.43783C133.169 7.06967 132.577 6.88547 131.852 6.88547C131.162 6.88547 130.597 7.06353 130.158 7.41992C129.718 7.77632 129.432 8.2811 129.301 8.93427H134.421ZM129.489 13.807C128.769 13.4212 128.213 12.8776 127.821 12.1768C127.429 11.4761 127.232 10.6625 127.232 9.73609C127.232 8.83347 127.422 8.03753 127.803 7.34854C128.183 6.66008 128.719 6.12241 129.408 5.73634C130.098 5.35053 130.895 5.15723 131.799 5.15723C133.225 5.15723 134.343 5.5671 135.152 6.38657C135.96 7.20604 136.365 8.34045 136.365 9.78929C136.365 9.94383 136.353 10.1756 136.329 10.4842H129.284C129.367 11.1256 129.658 11.6365 130.158 12.0164C130.657 12.3966 131.293 12.5864 132.066 12.5864C132.566 12.5864 133.047 12.5036 133.511 12.337C133.975 12.171 134.337 11.9512 134.599 11.6779L135.812 12.8538C135.372 13.3289 134.816 13.703 134.144 13.9762C133.472 14.2492 132.762 14.3858 132.013 14.3858C131.05 14.3858 130.208 14.1928 129.489 13.807Z" fill="white"/>
<path fill-rule="evenodd" clip-rule="evenodd" d="M138.148 5.33553H139.932L139.95 6.68946C140.295 6.16704 140.687 5.78096 141.127 5.53151C141.567 5.28206 142.066 5.15747 142.626 5.15747C143.054 5.15747 143.467 5.22591 143.865 5.36227C144.264 5.49889 144.593 5.68604 144.855 5.92346L143.963 7.54475C143.488 7.22392 142.994 7.06377 142.483 7.06377C141.769 7.06377 141.201 7.31295 140.779 7.81185C140.357 8.31075 140.146 8.98771 140.146 9.84301V14.1366H138.148V5.33553Z" fill="white"/>
<path fill-rule="evenodd" clip-rule="evenodd" d="M59.9297 27.6369L60.8572 26.1939C61.2496 26.5027 61.7191 26.7433 62.2663 26.9155C62.8131 27.0877 63.3782 27.1735 63.9609 27.1735C64.5196 27.1735 64.9535 27.0877 65.2629 26.9155C65.5721 26.7433 65.7268 26.4966 65.7268 26.176C65.7268 25.8672 65.575 25.6298 65.2718 25.4635C64.9688 25.2972 64.4781 25.1782 63.8003 25.1071C62.6469 25.0001 61.7579 24.7122 61.1337 24.243C60.5095 23.774 60.1974 23.1593 60.1974 22.399C60.1974 21.8645 60.3577 21.3955 60.6789 20.9915C60.9999 20.5878 61.4485 20.2731 62.0256 20.0472C62.6022 19.8218 63.2652 19.7087 64.0145 19.7087C65.37 19.7087 66.5352 20.0472 67.5104 20.7245L66.6364 22.1495C65.8516 21.6509 65.007 21.4014 64.1036 21.4014C63.4732 21.4014 62.9914 21.4878 62.6587 21.6597C62.3257 21.8319 62.1595 22.0784 62.1595 22.399C62.1595 22.6842 62.2989 22.9069 62.5786 23.0671C62.8578 23.2275 63.3188 23.3433 63.9609 23.4144C65.2688 23.5569 66.2202 23.8483 66.8147 24.2876C67.4092 24.7271 67.7066 25.3627 67.7066 26.1939C67.7066 26.7401 67.5489 27.2182 67.2339 27.628C66.9188 28.0379 66.4728 28.3585 65.8963 28.59C65.3194 28.8215 64.6564 28.9373 63.9074 28.9373C62.4207 28.9373 61.0949 28.5039 59.9297 27.6369Z" fill="white"/>
<path fill-rule="evenodd" clip-rule="evenodd" d="M71.203 28.0466C70.7035 27.5122 70.4537 26.7283 70.4537 25.6949V21.6149H68.7949V19.9225H70.4537V17.6243L72.4338 17.4104V19.9225H74.9665V21.6149H72.4338V25.6949C72.4338 26.1465 72.5376 26.4908 72.7459 26.7283C72.9539 26.966 73.2601 27.0844 73.6645 27.0844C74.0214 27.0844 74.3897 26.9956 74.7703 26.8173L75.3234 28.4207C74.9783 28.5752 74.6544 28.6851 74.3511 28.7503C74.0479 28.8156 73.7119 28.8482 73.3433 28.8482C72.4158 28.8482 71.7025 28.5811 71.203 28.0466Z" fill="white"/>
<path fill-rule="evenodd" clip-rule="evenodd" d="M76.8037 19.9227H78.5875L78.6052 21.2766C78.95 20.7542 79.3424 20.3681 79.7824 20.1187C80.2222 19.8692 80.7217 19.7446 81.2809 19.7446C81.7089 19.7446 82.122 19.8131 82.5205 19.9494C82.9188 20.0861 83.2486 20.2732 83.5104 20.5106L82.6185 22.1319C82.1428 21.8111 81.6492 21.6509 81.138 21.6509C80.4246 21.6509 79.8566 21.9001 79.4347 22.399C79.0123 22.8979 78.8014 23.5749 78.8014 24.4302V28.7238H76.8037V19.9227Z" fill="white"/>
<path fill-rule="evenodd" clip-rule="evenodd" d="M96.9488 28.0466C96.4493 27.5122 96.1996 26.7283 96.1996 25.6949V21.6149H94.541V19.9225H96.1996V17.6243L98.1796 17.4104V19.9225H100.712V21.6149H98.1796V25.6949C98.1796 26.1465 98.2834 26.4908 98.4917 26.7283C98.6997 26.966 99.0059 27.0844 99.4104 27.0844C99.7669 27.0844 100.136 26.9956 100.516 26.8173L101.069 28.4207C100.724 28.5752 100.4 28.6851 100.097 28.7503C99.794 28.8156 99.4577 28.8482 99.0892 28.8482C98.1616 28.8482 97.4483 28.5811 96.9488 28.0466Z" fill="white"/>
<path fill-rule="evenodd" clip-rule="evenodd" d="M109.168 23.5214C109.096 22.892 108.832 22.3931 108.374 22.025C107.916 21.6568 107.325 21.4726 106.599 21.4726C105.909 21.4726 105.344 21.6507 104.905 22.0071C104.465 22.3635 104.179 22.8682 104.048 23.5214H109.168ZM104.236 28.3941C103.516 28.0083 102.96 27.4648 102.568 26.764C102.176 26.0632 101.979 25.2497 101.979 24.3232C101.979 23.4206 102.17 22.6247 102.55 21.9357C102.931 21.2472 103.466 20.7096 104.155 20.3235C104.845 19.9377 105.642 19.7444 106.546 19.7444C107.973 19.7444 109.09 20.1543 109.899 20.9737C110.707 21.7932 111.112 22.9276 111.112 24.3767C111.112 24.531 111.1 24.7625 111.076 25.0713H104.031C104.114 25.7127 104.405 26.2237 104.905 26.6036C105.404 26.9838 106.04 27.1736 106.813 27.1736C107.313 27.1736 107.794 27.0907 108.258 26.9242C108.722 26.7581 109.084 26.5383 109.346 26.2651L110.559 27.441C110.119 27.9161 109.563 28.2901 108.891 28.5633C108.219 28.8363 107.509 28.9732 106.76 28.9732C105.797 28.9732 104.955 28.7799 104.236 28.3941Z" fill="white"/>
<path fill-rule="evenodd" clip-rule="evenodd" d="M115.08 26.0336C115.585 26.5087 116.248 26.7464 117.069 26.7464C117.889 26.7464 118.552 26.5087 119.058 26.0336C119.563 25.5588 119.816 24.9353 119.816 24.1629C119.816 23.379 119.566 22.7466 119.067 22.2657C118.567 21.7847 117.901 21.544 117.069 21.544C116.236 21.544 115.571 21.7847 115.071 22.2657C114.572 22.7466 114.322 23.379 114.322 24.1629C114.322 24.9353 114.575 25.5588 115.08 26.0336ZM114.554 33.5075C113.84 33.1805 113.296 32.7174 112.922 32.1177C112.547 31.5178 112.378 30.8261 112.413 30.0422H114.375C114.351 30.6953 114.586 31.218 115.08 31.61C115.573 32.0019 116.236 32.1979 117.069 32.1979C117.877 32.1979 118.525 32.0257 119.013 31.6814C119.5 31.3367 119.744 30.8854 119.744 30.3272C119.744 29.7689 119.51 29.3323 119.04 29.0179C118.57 28.7032 117.925 28.5457 117.104 28.5457C116.141 28.5457 115.3 28.3674 114.58 28.011C113.861 27.6549 113.305 27.1442 112.913 26.479C112.52 25.8141 112.324 25.042 112.324 24.1629C112.324 23.3199 112.526 22.5595 112.931 21.8825C113.335 21.2056 113.897 20.6773 114.616 20.2968C115.336 19.9169 116.141 19.7268 117.033 19.7268C117.973 19.7268 118.769 19.9228 119.423 20.3147L120.547 18.9429L121.992 20.0473L120.761 21.4727C121.13 21.9125 121.397 22.34 121.564 22.7555C121.73 23.1715 121.813 23.6404 121.813 24.1629C121.813 24.947 121.623 25.6269 121.243 26.2028C120.862 26.779 120.303 27.2274 119.566 27.5479C120.268 27.8094 120.809 28.1776 121.189 28.6524C121.57 29.1275 121.76 29.6917 121.76 30.3451C121.76 31.0814 121.566 31.7258 121.18 32.2781C120.794 32.8305 120.247 33.2551 119.539 33.5521C118.832 33.8489 118.008 33.9973 117.069 33.9973C116.106 33.9973 115.267 33.8339 114.554 33.5075Z" fill="white"/>
<path fill-rule="evenodd" clip-rule="evenodd" d="M126.219 28.6702L122.741 19.9226H124.882L126.416 23.9312L127.325 26.4612L128.342 23.9312L130.001 19.9226H132.141L126.612 32.7857H124.436L126.219 28.6702Z" fill="white"/>
<path fill-rule="evenodd" clip-rule="evenodd" d="M61.8515 40.9242C62.3568 41.3993 63.0199 41.637 63.8403 41.637C64.6608 41.637 65.3235 41.3993 65.8292 40.9242C66.3343 40.4494 66.5872 39.8259 66.5872 39.0535C66.5872 38.2696 66.3375 37.6373 65.838 37.1563C65.3385 36.6753 64.6725 36.4347 63.8403 36.4347C63.0078 36.4347 62.3418 36.6753 61.8424 37.1563C61.3431 37.6373 61.0934 38.2696 61.0934 39.0535C61.0934 39.8259 61.3458 40.4494 61.8515 40.9242ZM61.3252 48.3981C60.6118 48.0711 60.0676 47.6081 59.6932 47.0084C59.3184 46.4084 59.1492 45.7167 59.1848 44.9328H61.1469C61.1228 45.586 61.3579 46.1087 61.8515 46.5006C62.3448 46.8926 63.0078 47.0886 63.8403 47.0886C64.6487 47.0886 65.2968 46.9164 65.7845 46.572C66.2719 46.2274 66.5158 45.7761 66.5158 45.2178C66.5158 44.6596 66.2807 44.223 65.8112 43.9085C65.3415 43.5939 64.6964 43.4364 63.8759 43.4364C62.9128 43.4364 62.0712 43.258 61.352 42.9016C60.6324 42.5455 60.0767 42.0349 59.6843 41.3697C59.2919 40.7047 59.0957 39.9326 59.0957 39.0535C59.0957 38.2105 59.2978 37.4501 59.702 36.7732C60.1062 36.0962 60.6681 35.5679 61.3876 35.1874C62.1071 34.8075 62.9128 34.6174 63.8044 34.6174C64.7437 34.6174 65.5406 34.8134 66.1948 35.2053L67.3185 33.8335L68.7632 34.938L67.5324 36.3633C67.901 36.8031 68.1684 37.2303 68.3352 37.6461C68.5014 38.0621 68.5849 38.5311 68.5849 39.0535C68.5849 39.8377 68.3946 40.5176 68.014 41.0935C67.6333 41.6696 67.0747 42.118 66.3375 42.4386C67.0388 42.7001 67.5798 43.0682 67.9607 43.5431C68.3411 44.0182 68.5314 44.5823 68.5314 45.2357C68.5314 45.9721 68.3381 46.6164 67.9516 47.1688C67.5651 47.7211 67.0179 48.1457 66.3107 48.4428C65.603 48.7395 64.7796 48.8879 63.8403 48.8879C62.8772 48.8879 62.0388 48.7246 61.3252 48.3981Z" fill="white"/>
<path fill-rule="evenodd" clip-rule="evenodd" d="M70.5654 34.8133H72.3492L72.3669 36.1672C72.7117 35.6448 73.1041 35.2587 73.5442 35.0093C73.984 34.7598 74.4835 34.6353 75.0426 34.6353C75.4704 34.6353 75.8837 34.7037 76.2823 34.8401C76.6806 34.9767 77.0104 35.1638 77.2721 35.4012L76.3802 37.0223C75.9043 36.7017 75.411 36.5413 74.9 36.5413C74.1863 36.5413 73.6183 36.7907 73.1965 37.2896C72.7741 37.7885 72.5631 38.4655 72.5631 39.3208V43.6144H70.5654V34.8133Z" fill="white"/>
<path fill-rule="evenodd" clip-rule="evenodd" d="M79.8307 40.6125C80.0564 41.0341 80.3746 41.3697 80.785 41.6191C81.1951 41.8686 81.6678 41.9932 82.2029 41.9932C82.7382 41.9932 83.2107 41.8686 83.6211 41.6191C84.0314 41.3697 84.3462 41.0341 84.5662 40.6125C84.7863 40.1911 84.8963 39.7249 84.8963 39.2139C84.8963 38.7035 84.7863 38.237 84.5662 37.8154C84.3462 37.394 84.0314 37.0582 83.6211 36.8087C83.2107 36.5596 82.7382 36.4347 82.2029 36.4347C81.6678 36.4347 81.1951 36.5596 80.785 36.8087C80.3746 37.0582 80.0564 37.394 79.8307 37.8154C79.6048 38.237 79.4918 38.7035 79.4918 39.2139C79.4918 39.7249 79.6048 40.1911 79.8307 40.6125ZM79.7236 43.2137C79.0103 42.8158 78.4599 42.2694 78.0737 41.5745C77.6871 40.8799 77.4941 40.093 77.4941 39.2139C77.4941 38.3351 77.6871 37.5483 78.0737 36.8534C78.4599 36.1585 79.0103 35.6123 79.7236 35.2142C80.437 34.8166 81.2636 34.6174 82.2029 34.6174C83.1304 34.6174 83.9511 34.8166 84.6645 35.2142C85.3781 35.6123 85.9279 36.1585 86.3144 36.8534C86.7007 37.5483 86.8942 38.3351 86.8942 39.2139C86.8942 40.093 86.7007 40.8799 86.3144 41.5745C85.9279 42.2694 85.3781 42.8158 84.6645 43.2137C83.9511 43.6118 83.1304 43.8104 82.2029 43.8104C81.2636 43.8104 80.437 43.6118 79.7236 43.2137Z" fill="white"/>
<path fill-rule="evenodd" clip-rule="evenodd" d="M90.2206 43.2846C89.6614 42.9461 89.2307 42.4681 88.9274 41.8505C88.6242 41.2332 88.4727 40.5083 88.4727 39.6771V34.8132H90.4703V39.5523C90.4703 40.3244 90.6545 40.9241 91.0234 41.3516C91.3917 41.7791 91.8973 41.993 92.5395 41.993C93.2647 41.993 93.8533 41.7556 94.3054 41.2805C94.757 40.8054 94.9832 40.1937 94.9832 39.4453V34.8132H96.9808V43.6143H95.197L95.1794 42.474C94.4301 43.3531 93.4314 43.7924 92.1827 43.7924C91.4335 43.7924 90.7795 43.6231 90.2206 43.2846Z" fill="white"/>
<path fill-rule="evenodd" clip-rule="evenodd" d="M102.162 41.2181C102.667 41.7349 103.312 41.9932 104.097 41.9932C104.894 41.9932 105.542 41.7349 106.042 41.2181C106.541 40.7015 106.791 40.0334 106.791 39.2139C106.791 38.3942 106.541 37.7263 106.042 37.2095C105.542 36.693 104.894 36.4344 104.097 36.4344C103.312 36.4344 102.667 36.693 102.162 37.2095C101.657 37.7263 101.404 38.3942 101.404 39.2139C101.404 40.0334 101.657 40.7015 102.162 41.2181ZM99.4062 34.8134H101.19L101.208 35.989C101.553 35.5615 102.004 35.2262 102.564 34.9826C103.122 34.7393 103.741 34.6174 104.419 34.6174C105.275 34.6174 106.033 34.8105 106.693 35.1963C107.353 35.5826 107.867 36.1259 108.236 36.8264C108.604 37.5274 108.788 38.3231 108.788 39.2139C108.788 40.1045 108.604 40.9005 108.236 41.6012C107.867 42.302 107.353 42.8455 106.693 43.2313C106.033 43.6171 105.275 43.8104 104.419 43.8104C103.812 43.8104 103.244 43.7094 102.715 43.5075C102.186 43.3057 101.749 43.0207 101.404 42.6525V47.6762H99.4062V34.8134Z" fill="white"/>
<g clip-path="url(#clip0_234_9433)">
<path fill-rule="evenodd" clip-rule="evenodd" d="M30.3064 3.48096C25.6596 8.12227 25.6596 15.6471 30.3064 20.2884C34.9532 24.9297 42.4871 24.9297 47.1337 20.2884L30.3064 3.48096Z" fill="#D55127"/>
<path fill-rule="evenodd" clip-rule="evenodd" d="M0.793945 0V23.7692C6.31266 23.7692 10.9536 20.0165 12.2989 14.9266C12.3385 14.7767 12.5596 14.8063 12.5596 14.9613V23.7692C19.1311 23.7692 24.4584 18.4484 24.4584 11.8847C24.4584 5.32096 19.1311 0 12.5596 0V8.80809C12.5596 8.96307 12.3385 8.99255 12.2989 8.84278C10.9536 3.75278 6.31266 0 0.793945 0Z" fill="#D55127"/>
<path fill-rule="evenodd" clip-rule="evenodd" d="M38.6702 50.4429C45.2417 50.4429 50.569 45.1219 50.569 38.5582H41.7505C41.5953 38.5582 41.5658 38.3375 41.7158 38.2979C46.8118 36.9541 50.569 32.3186 50.569 26.8064H26.7715C26.7715 32.3186 30.5287 36.9541 35.6247 38.2979C35.7747 38.3375 35.7452 38.5582 35.59 38.5582H26.7715C26.7715 45.1219 32.0987 50.4429 38.6702 50.4429Z" fill="#D55127"/>
<path fill-rule="evenodd" clip-rule="evenodd" d="M11.8988 35.6145V26.8064C5.32725 26.8064 0 32.1274 0 38.6911C0 45.2548 5.32725 50.5758 11.8988 50.5758V41.7677C11.8988 41.6127 12.1199 41.5832 12.1595 41.733C13.5048 46.823 18.1457 50.5758 23.6645 50.5758V26.8064C18.1457 26.8064 13.5048 30.5592 12.1595 35.6492C12.1199 35.7989 11.8988 35.7695 11.8988 35.6145Z" fill="#D55127"/>
</g>
<defs>
<clipPath id="clip0_234_9433">
<rect width="50.8571" height="50.7682" fill="white"/>
</clipPath>
</defs>
</svg>
