<svg width="185" height="314" viewBox="0 0 185 314" fill="none" xmlns="http://www.w3.org/2000/svg">
<path fill-rule="evenodd" clip-rule="evenodd" d="M9.11104 236.759C10.147 237.833 11.491 238.37 13.1431 238.37C16.8116 238.37 19.3597 235.643 19.3597 232.591C19.3597 229.108 17.108 226.717 13.4584 226.717C11.8058 226.717 10.147 227.349 9.11104 228.423C8.07513 229.498 7.55717 230.887 7.55717 232.591C7.55717 234.295 8.07513 235.684 9.11104 236.759ZM8.02239 240.945C6.65338 240.142 5.58693 239.012 4.82248 237.555C4.05748 236.098 3.67554 234.443 3.67554 232.591C3.67554 230.739 4.05748 229.084 4.82248 227.627C5.58693 226.17 6.88599 225.04 8.25499 224.237C9.62345 223.435 11.6942 223.038 13.4701 223.033C15.6546 223.029 19.9482 223.716 21.8762 226.981C22.6757 228.333 23.1342 230.201 23.1342 232.349V241.741H19.4347L19.398 239.296C18.6824 240.185 17.7453 240.883 16.5862 241.389C15.427 241.895 14.1446 242.148 12.739 242.148C10.9636 242.148 9.39139 241.747 8.02239 240.945Z" fill="black"/>
<path fill-rule="evenodd" clip-rule="evenodd" d="M81.2104 236.759C82.2463 237.833 83.5903 238.37 85.2425 238.37C88.9109 238.37 91.4591 235.643 91.4591 232.591C91.4591 229.108 89.2074 226.717 85.5578 226.717C83.9051 226.717 82.2463 227.349 81.2104 228.423C80.1745 229.498 79.6565 230.887 79.6565 232.591C79.6565 234.295 80.1745 235.684 81.2104 236.759ZM80.1218 240.945C78.7527 240.142 77.6857 239.012 76.9219 237.555C76.1569 236.098 75.7749 234.443 75.7749 232.591C75.7749 230.739 76.1569 229.084 76.9219 227.627C77.6857 226.17 78.9854 225.04 80.3544 224.237C81.7228 223.435 83.7935 223.038 85.5695 223.033C87.754 223.029 92.0476 223.716 93.9756 226.981C94.775 228.333 95.2336 230.201 95.2336 232.349V241.741H91.534L91.4974 239.296C90.7818 240.185 89.8447 240.883 88.6856 241.389C87.5264 241.895 86.244 242.148 84.8383 242.148C83.063 242.148 81.4908 241.747 80.1218 240.945Z" fill="black"/>
<path fill-rule="evenodd" clip-rule="evenodd" d="M60.5224 267.164C61.5583 268.238 62.9024 268.775 64.5545 268.775C68.2229 268.775 70.7711 266.049 70.7711 262.996C70.7711 259.514 68.5194 257.122 64.8698 257.122C63.2171 257.122 61.5583 257.754 60.5224 258.829C59.4865 259.903 58.9685 261.292 58.9685 262.996C58.9685 264.701 59.4865 266.09 60.5224 267.164ZM59.4338 271.35C58.0648 270.548 56.9983 269.418 56.2339 267.961C55.4689 266.504 55.0869 264.849 55.0869 262.996C55.0869 261.144 55.4689 259.49 56.2339 258.032C56.9983 256.576 58.2974 255.446 59.6664 254.643C61.0354 253.841 63.1055 253.443 64.8815 253.439C67.066 253.434 71.3596 254.122 73.2876 257.386C74.087 258.739 74.5456 260.607 74.5456 262.755V272.146H70.846L70.8094 269.702C70.0938 270.591 69.1567 271.289 67.9976 271.794C66.8384 272.3 65.556 272.554 64.1503 272.554C62.375 272.554 60.8028 272.152 59.4338 271.35Z" fill="black"/>
<path fill-rule="evenodd" clip-rule="evenodd" d="M28.1649 241.741H32.308V215.81H28.1649V241.741Z" fill="black"/>
<path fill-rule="evenodd" clip-rule="evenodd" d="M51.1008 230.924C50.9526 229.615 50.4035 228.578 49.4542 227.812C48.5049 227.047 47.2774 226.664 45.7735 226.664C44.3429 226.664 43.1715 227.034 42.2594 227.775C41.3462 228.516 40.7549 229.566 40.4835 230.924H51.1008ZM40.8715 241.056C39.3798 240.254 38.2268 239.123 37.4129 237.666C36.5991 236.209 36.1921 234.517 36.1921 232.591C36.1921 230.714 36.5863 229.059 37.3757 227.627C38.1652 226.195 39.2749 225.077 40.7055 224.274C42.1356 223.472 43.7877 223.07 45.6631 223.07C48.622 223.07 50.9403 223.923 52.6169 225.626C54.294 227.33 55.1329 229.689 55.1329 232.702C55.1329 233.023 55.1084 233.505 55.059 234.147H40.4463C40.6189 235.48 41.2235 236.543 42.2594 237.333C43.2948 238.123 44.6138 238.518 46.2177 238.518C47.2536 238.518 48.2517 238.346 49.2138 237.999C50.1753 237.654 50.9276 237.197 51.4705 236.629L53.9859 239.074C53.0732 240.062 51.9202 240.84 50.5273 241.408C49.1333 241.975 47.6605 242.259 46.1066 242.259C44.1092 242.259 42.3638 241.858 40.8715 241.056Z" fill="black"/>
<path fill-rule="evenodd" clip-rule="evenodd" d="M67.4885 238.185L65.5277 235.147L63.5303 238.185L61.0515 241.741H56.2428L62.7903 232.295L56.6497 223.441H61.5695L64.1587 227.257L65.5277 229.479L66.9334 227.257L69.5232 223.441H74.3691L68.228 232.295L74.776 241.741H69.8563L67.4885 238.185Z" fill="black"/>
<path fill-rule="evenodd" clip-rule="evenodd" d="M100.264 223.441H103.964L104 225.849C105.554 223.996 107.663 223.071 110.326 223.071C111.88 223.071 113.249 223.423 114.433 224.126C115.616 224.83 116.528 225.825 117.17 227.108C117.811 228.393 118.132 229.9 118.132 231.628V241.741H113.989V231.887C113.989 230.282 113.594 229.035 112.805 228.146C112.015 227.256 110.93 226.812 109.55 226.812C108.045 226.812 106.812 227.312 105.85 228.313C104.889 229.313 104.407 230.579 104.407 232.11V241.741H100.264V223.441Z" fill="black"/>
<path fill-rule="evenodd" clip-rule="evenodd" d="M127.38 236.759C128.416 237.833 129.76 238.37 131.412 238.37C133.064 238.37 134.408 237.833 135.444 236.759C136.48 235.684 136.998 234.295 136.998 232.591C136.998 230.887 136.48 229.497 135.444 228.423C134.408 227.349 133.064 226.812 131.412 226.812C129.76 226.812 128.416 227.349 127.38 228.423C126.344 229.497 125.826 230.887 125.826 232.591C125.826 234.295 126.344 235.684 127.38 236.759ZM126.048 240.963C124.692 240.173 123.625 239.055 122.848 237.611C122.071 236.166 121.683 234.493 121.683 232.591C121.683 230.689 122.071 229.016 122.848 227.571C123.625 226.126 124.692 225.009 126.048 224.219C127.404 223.429 128.946 223.033 130.672 223.033C131.979 223.033 133.175 223.243 134.261 223.663C135.345 224.083 136.258 224.663 136.998 225.404V215.809H141.141V241.741H137.442L137.405 239.296C136.689 240.185 135.746 240.883 134.575 241.389C133.404 241.895 132.102 242.148 130.672 242.148C128.946 242.148 127.404 241.753 126.048 240.963Z" fill="black"/>
<path fill-rule="evenodd" clip-rule="evenodd" d="M159.896 230.924C159.748 229.615 159.199 228.578 158.25 227.812C157.3 227.047 156.074 226.664 154.569 226.664C153.138 226.664 151.967 227.034 151.055 227.775C150.142 228.516 149.551 229.566 149.279 230.924H159.896ZM149.668 241.056C148.175 240.254 147.022 239.123 146.208 237.666C145.395 236.209 144.988 234.517 144.988 232.591C144.988 230.714 145.382 229.059 146.172 227.627C146.961 226.195 148.07 225.077 149.501 224.274C150.931 223.472 152.584 223.07 154.459 223.07C157.418 223.07 159.736 223.923 161.413 225.626C163.09 227.33 163.928 229.689 163.928 232.702C163.928 233.023 163.904 233.505 163.855 234.147H149.242C149.415 235.48 150.019 236.543 151.055 237.333C152.09 238.123 153.41 238.518 155.013 238.518C156.049 238.518 157.048 238.346 158.009 237.999C158.971 237.654 159.723 237.197 160.266 236.629L162.782 239.074C161.869 240.062 160.716 240.84 159.323 241.408C157.929 241.975 156.456 242.259 154.902 242.259C152.905 242.259 151.159 241.858 149.668 241.056Z" fill="black"/>
<path fill-rule="evenodd" clip-rule="evenodd" d="M167.627 223.441H171.327L171.364 226.256C172.079 225.17 172.892 224.367 173.805 223.848C174.717 223.33 175.753 223.071 176.913 223.071C177.8 223.071 178.657 223.213 179.484 223.496C180.31 223.781 180.994 224.17 181.537 224.663L179.687 228.035C178.7 227.367 177.677 227.034 176.616 227.034C175.137 227.034 173.959 227.553 173.084 228.59C172.208 229.627 171.77 231.035 171.77 232.813V241.741H167.627V223.441Z" fill="black"/>
<path fill-rule="evenodd" clip-rule="evenodd" d="M5.40576 269.813L7.32937 266.812C8.14322 267.454 9.11696 267.955 10.2517 268.313C11.3859 268.671 12.5578 268.849 13.7664 268.849C14.925 268.849 15.8249 268.671 16.4666 268.313C17.1078 267.955 17.4287 267.441 17.4287 266.775C17.4287 266.133 17.1139 265.639 16.485 265.293C15.8565 264.948 14.8389 264.7 13.4333 264.552C11.0411 264.33 9.19746 263.731 7.90284 262.756C6.60822 261.78 5.96091 260.502 5.96091 258.921C5.96091 257.81 6.29345 256.835 6.95964 255.995C7.62526 255.155 8.5557 254.501 9.75261 254.031C10.9484 253.563 12.3235 253.327 13.8774 253.327C16.6887 253.327 19.1053 254.031 21.1277 255.439L19.3151 258.403C17.6874 257.366 15.9359 256.847 14.0623 256.847C12.7549 256.847 11.7556 257.027 11.0655 257.384C10.3749 257.742 10.0302 258.255 10.0302 258.921C10.0302 259.514 10.3194 259.978 10.8996 260.311C11.4786 260.644 12.4346 260.885 13.7664 261.033C16.4788 261.329 18.4519 261.935 19.6849 262.848C20.9179 263.762 21.5346 265.084 21.5346 266.812C21.5346 267.948 21.2076 268.942 20.5542 269.794C19.9008 270.646 18.9759 271.313 17.7801 271.794C16.5838 272.276 15.2087 272.517 13.6553 272.517C10.572 272.517 7.82234 271.615 5.40576 269.813Z" fill="black"/>
<path fill-rule="evenodd" clip-rule="evenodd" d="M28.7854 270.665C27.7495 269.553 27.2315 267.923 27.2315 265.775V257.291H23.7913V253.772H27.2315V248.993L31.338 248.549V253.772H36.5909V257.291H31.338V265.775C31.338 266.714 31.5534 267.43 31.9853 267.923C32.4167 268.418 33.0518 268.664 33.8906 268.664C34.6306 268.664 35.3945 268.479 36.1839 268.109L37.3309 271.443C36.6153 271.764 35.9436 271.992 35.3146 272.128C34.6856 272.264 33.9889 272.331 33.2244 272.331C31.3008 272.331 29.8213 271.776 28.7854 270.665Z" fill="black"/>
<path fill-rule="evenodd" clip-rule="evenodd" d="M40.4008 253.772H44.1003L44.1369 256.587C44.852 255.501 45.6658 254.698 46.5785 254.18C47.4906 253.661 48.5265 253.402 49.6863 253.402C50.5739 253.402 51.4305 253.544 52.2572 253.828C53.0832 254.112 53.7672 254.501 54.3101 254.995L52.4604 258.366C51.4738 257.699 50.4501 257.366 49.3898 257.366C47.9103 257.366 46.7323 257.884 45.8574 258.921C44.9813 259.959 44.5439 261.366 44.5439 263.145V272.072H40.4008V253.772Z" fill="black"/>
<path fill-rule="evenodd" clip-rule="evenodd" d="M82.182 270.665C81.146 269.553 80.6281 267.923 80.6281 265.775V257.291H77.1884V253.772H80.6281V248.993L84.7346 248.549V253.772H89.9874V257.291H84.7346V265.775C84.7346 266.714 84.95 267.43 85.3819 267.923C85.8132 268.418 86.4483 268.664 87.2871 268.664C88.0266 268.664 88.7911 268.479 89.5805 268.109L90.7274 271.443C90.0118 271.764 89.3401 271.992 88.7111 272.128C88.0827 272.264 87.3854 272.331 86.621 272.331C84.6974 272.331 83.2179 271.776 82.182 270.665Z" fill="black"/>
<path fill-rule="evenodd" clip-rule="evenodd" d="M107.522 261.255C107.373 259.947 106.824 258.909 105.875 258.144C104.926 257.378 103.699 256.995 102.194 256.995C100.764 256.995 99.5925 257.365 98.6804 258.106C97.7677 258.848 97.1759 259.897 96.9044 261.255H107.522ZM97.293 271.387C95.8008 270.585 94.6477 269.455 93.8339 267.998C93.0206 266.541 92.6136 264.849 92.6136 262.923C92.6136 261.046 93.0078 259.391 93.7972 257.958C94.5861 256.527 95.6959 255.409 97.1265 254.606C98.5566 253.804 100.209 253.402 102.084 253.402C105.043 253.402 107.361 254.254 109.038 255.958C110.715 257.662 111.554 260.021 111.554 263.034C111.554 263.354 111.529 263.836 111.48 264.478H96.8678C97.0399 265.812 97.6444 266.874 98.6804 267.664C99.7157 268.455 101.035 268.849 102.639 268.849C103.675 268.849 104.673 268.677 105.635 268.331C106.597 267.985 107.349 267.528 107.891 266.96L110.407 269.405C109.494 270.393 108.341 271.171 106.948 271.739C105.555 272.307 104.081 272.591 102.528 272.591C100.53 272.591 98.7847 272.189 97.293 271.387Z" fill="black"/>
<path fill-rule="evenodd" clip-rule="evenodd" d="M119.784 266.478C120.832 267.466 122.208 267.961 123.909 267.961C125.611 267.961 126.985 267.466 128.034 266.478C129.082 265.491 129.606 264.195 129.606 262.589C129.606 260.959 129.088 259.644 128.052 258.644C127.017 257.644 125.635 257.143 123.909 257.143C122.183 257.143 120.802 257.644 119.766 258.644C118.73 259.644 118.212 260.959 118.212 262.589C118.212 264.195 118.736 265.491 119.784 266.478ZM118.693 282.019C117.213 281.339 116.085 280.376 115.308 279.129C114.531 277.882 114.18 276.444 114.254 274.814H118.323C118.273 276.172 118.761 277.259 119.784 278.074C120.807 278.889 122.183 279.296 123.909 279.296C125.586 279.296 126.93 278.938 127.941 278.222C128.952 277.505 129.458 276.567 129.458 275.406C129.458 274.245 128.971 273.338 127.997 272.684C127.022 272.029 125.685 271.702 123.983 271.702C121.985 271.702 120.241 271.331 118.748 270.59C117.256 269.85 116.104 268.788 115.29 267.405C114.476 266.022 114.069 264.417 114.069 262.589C114.069 260.836 114.488 259.255 115.326 257.847C116.165 256.439 117.33 255.341 118.822 254.55C120.314 253.76 121.985 253.365 123.835 253.365C125.783 253.365 127.435 253.772 128.792 254.587L131.123 251.735L134.119 254.031L131.567 256.995C132.331 257.909 132.886 258.798 133.232 259.662C133.576 260.527 133.749 261.502 133.749 262.589C133.749 264.219 133.354 265.633 132.566 266.83C131.776 268.028 130.617 268.961 129.088 269.627C130.543 270.171 131.665 270.937 132.455 271.924C133.243 272.912 133.638 274.085 133.638 275.443C133.638 276.975 133.237 278.314 132.436 279.463C131.635 280.611 130.5 281.494 129.033 282.112C127.565 282.729 125.857 283.038 123.909 283.038C121.912 283.038 120.173 282.698 118.693 282.019Z" fill="black"/>
<path fill-rule="evenodd" clip-rule="evenodd" d="M142.887 271.961L135.673 253.772H140.112L143.294 262.107L145.181 267.368L147.289 262.107L150.729 253.772H155.168L143.701 280.519H139.187L142.887 271.961Z" fill="black"/>
<path fill-rule="evenodd" clip-rule="evenodd" d="M9.39157 297.441C10.4397 298.429 11.8148 298.923 13.5164 298.923C15.2179 298.923 16.5925 298.429 17.6411 297.441C18.6887 296.454 19.2133 295.157 19.2133 293.551C19.2133 291.921 18.6954 290.606 17.6595 289.606C16.6236 288.606 15.2423 288.106 13.5164 288.106C11.7898 288.106 10.4086 288.606 9.3727 289.606C8.33734 290.606 7.81938 291.921 7.81938 293.551C7.81938 295.157 8.34289 296.454 9.39157 297.441ZM8.30014 312.982C6.82066 312.302 5.69203 311.339 4.91537 310.092C4.13816 308.844 3.7873 307.406 3.86114 305.776H7.93041C7.88044 307.134 8.36787 308.221 9.39157 309.036C10.4147 309.851 11.7898 310.259 13.5164 310.259C15.1929 310.259 16.5369 309.901 17.5484 309.185C18.5594 308.468 19.0651 307.53 19.0651 306.369C19.0651 305.208 18.5777 304.3 17.604 303.646C16.6297 302.992 15.2917 302.665 13.5902 302.665C11.5928 302.665 9.84735 302.294 8.35566 301.553C6.8634 300.812 5.71091 299.75 4.89705 298.367C4.0832 296.985 3.67627 295.379 3.67627 293.551C3.67627 291.798 4.09541 290.217 4.93369 288.81C5.77197 287.402 6.93724 286.303 8.42949 285.512C9.92174 284.722 11.5928 284.327 13.442 284.327C15.39 284.327 17.0427 284.735 18.3995 285.55L20.73 282.697L23.7262 284.994L21.1736 287.957C21.938 288.872 22.4926 289.76 22.8385 290.625C23.1832 291.49 23.3564 292.465 23.3564 293.551C23.3564 295.182 22.9617 296.595 22.1723 297.793C21.3829 298.991 20.2243 299.923 18.6954 300.59C20.1499 301.133 21.2718 301.899 22.0618 302.886C22.8507 303.874 23.2454 305.047 23.2454 306.406C23.2454 307.937 22.8446 309.277 22.043 310.425C21.2413 311.574 20.1066 312.457 18.6399 313.074C17.172 313.691 15.4644 314 13.5164 314C11.5189 314 9.78018 313.66 8.30014 312.982Z" fill="black"/>
<path fill-rule="evenodd" clip-rule="evenodd" d="M27.4623 284.735H31.1618L31.1985 287.55C31.9135 286.464 32.7274 285.661 33.64 285.142C34.5521 284.623 35.5881 284.364 36.7478 284.364C37.6349 284.364 38.4921 284.507 39.3187 284.79C40.1448 285.074 40.8287 285.463 41.3716 285.957L39.5219 289.328C38.5348 288.661 37.5117 288.328 36.4519 288.328C34.9718 288.328 33.7938 288.846 32.9189 289.884C32.0429 290.921 31.6054 292.329 31.6054 294.107V303.035H27.4623V284.735Z" fill="black"/>
<path fill-rule="evenodd" clip-rule="evenodd" d="M46.6794 296.793C47.1474 297.67 47.8075 298.367 48.6585 298.886C49.509 299.405 50.4894 299.664 51.5992 299.664C52.7095 299.664 53.6893 299.405 54.5404 298.886C55.3914 298.367 56.0443 297.67 56.5006 296.793C56.957 295.917 57.1851 294.947 57.1851 293.885C57.1851 292.823 56.957 291.853 56.5006 290.977C56.0443 290.101 55.3914 289.402 54.5404 288.884C53.6893 288.365 52.7095 288.106 51.5992 288.106C50.4894 288.106 49.509 288.365 48.6585 288.884C47.8075 289.402 47.1474 290.101 46.6794 290.977C46.2109 291.853 45.9766 292.823 45.9766 293.885C45.9766 294.947 46.2109 295.917 46.6794 296.793ZM46.4574 302.201C44.9779 301.374 43.8365 300.238 43.0354 298.793C42.2338 297.349 41.8335 295.713 41.8335 293.885C41.8335 292.057 42.2338 290.421 43.0354 288.976C43.8365 287.532 44.9779 286.396 46.4574 285.568C47.9369 284.741 49.6512 284.327 51.5992 284.327C53.5228 284.327 55.2249 284.741 56.7044 285.568C58.1844 286.396 59.3247 287.532 60.1263 288.976C60.9274 290.421 61.3288 292.057 61.3288 293.885C61.3288 295.713 60.9274 297.349 60.1263 298.793C59.3247 300.238 58.1844 301.374 56.7044 302.201C55.2249 303.029 53.5228 303.442 51.5992 303.442C49.6512 303.442 47.9369 303.029 46.4574 302.201Z" fill="black"/>
<path fill-rule="evenodd" clip-rule="evenodd" d="M68.227 302.349C67.0672 301.646 66.174 300.652 65.545 299.367C64.916 298.084 64.6018 296.577 64.6018 294.848V284.735H68.7449V294.589C68.7449 296.194 69.1269 297.441 69.8919 298.33C70.6558 299.219 71.7044 299.664 73.0362 299.664C74.5402 299.664 75.7609 299.17 76.6986 298.182C77.6351 297.194 78.1042 295.922 78.1042 294.366V284.735H82.2473V303.035H78.5478L78.5112 300.664C76.9573 302.492 74.886 303.405 72.2962 303.405C70.7424 303.405 69.3861 303.053 68.227 302.349Z" fill="black"/>
<path fill-rule="evenodd" clip-rule="evenodd" d="M92.9933 298.052C94.0414 299.127 95.3793 299.664 97.007 299.664C98.6591 299.664 100.004 299.127 101.04 298.052C102.075 296.978 102.593 295.589 102.593 293.885C102.593 292.18 102.075 290.792 101.04 289.717C100.004 288.643 98.6591 288.105 97.007 288.105C95.3793 288.105 94.0414 288.643 92.9933 289.717C91.9451 290.792 91.4211 292.18 91.4211 293.885C91.4211 295.589 91.9451 296.978 92.9933 298.052ZM87.278 284.735H90.9775L91.0141 287.179C91.7292 286.29 92.6663 285.593 93.826 285.087C94.9846 284.581 96.267 284.327 97.6732 284.327C99.4486 284.327 101.021 284.729 102.39 285.531C103.758 286.334 104.825 287.464 105.59 288.92C106.354 290.378 106.736 292.033 106.736 293.885C106.736 295.737 106.354 297.392 105.59 298.849C104.825 300.306 103.758 301.436 102.39 302.238C101.021 303.041 99.4486 303.442 97.6732 303.442C96.4152 303.442 95.2372 303.232 94.1402 302.813C93.0427 302.393 92.1361 301.8 91.4211 301.035V311.481H87.278V284.735Z" fill="black"/>
<path fill-rule="evenodd" clip-rule="evenodd" d="M110.244 12.6955C93.341 29.6226 93.341 57.066 110.244 73.9931C127.148 90.9203 154.553 90.9203 171.456 73.9931L110.244 12.6955Z" fill="#D55127"/>
<path fill-rule="evenodd" clip-rule="evenodd" d="M2.88904 0.000278473V86.6881C22.9642 86.6881 39.8463 73.0015 44.7399 54.4385C44.8841 53.8917 45.6885 53.9998 45.6885 54.565V86.6881C69.5933 86.6881 88.9719 67.2828 88.9719 43.3445C88.9719 19.4061 69.5933 0.000278473 45.6885 0.000278473V32.1239C45.6885 32.6891 44.8841 32.7966 44.7399 32.2504C39.8463 13.6869 22.9642 0.000278473 2.88904 0.000278473Z" fill="#D55127"/>
<path fill-rule="evenodd" clip-rule="evenodd" d="M140.669 183.968C164.574 183.968 183.952 164.562 183.952 140.624H151.874C151.309 140.624 151.202 139.819 151.747 139.675C170.285 134.774 183.952 117.868 183.952 97.7644H97.3854C97.3854 117.868 111.053 134.774 129.59 139.675C130.136 139.819 130.028 140.624 129.464 140.624H97.3854C97.3854 164.562 116.764 183.968 140.669 183.968Z" fill="#D55127"/>
<path fill-rule="evenodd" clip-rule="evenodd" d="M43.2836 129.888V97.7643C19.3788 97.7643 0.00012207 117.17 0.00012207 141.108C0.00012207 165.047 19.3788 184.453 43.2836 184.453V152.329C43.2836 151.764 44.088 151.656 44.2321 152.203C49.1257 170.766 66.0079 184.453 86.083 184.453V97.7643C66.0079 97.7643 49.1257 111.451 44.2321 130.014C44.088 130.561 43.2836 130.453 43.2836 129.888Z" fill="#D55127"/>
</svg>
