<svg width="66" height="66" viewBox="0 0 66 66" fill="none" xmlns="http://www.w3.org/2000/svg">
<g clip-path="url(#clip0_7_387)">
<path fill-rule="evenodd" clip-rule="evenodd" d="M32.9742 33.0265C32.9745 33.009 32.9732 32.9918 32.9735 32.9742C32.9911 32.9742 33.0083 32.9732 33.0259 32.9732C33.0256 32.9908 33.0266 33.008 33.0266 33.0255C33.009 33.0255 32.9918 33.0265 32.9742 33.0265ZM65.4832 33.234L39.8056 33.0093C39.2102 33.0043 39.088 32.1681 39.6565 31.9921C48.5561 29.2368 55.0559 20.982 55.1417 11.1676C55.1765 7.21015 54.1596 3.49028 52.3585 0.266093C52.266 0.10109 52.0901 -0.000297546 51.9012 -0.000297546H33.7552C33.4692 -0.000297546 33.2363 0.230641 33.234 0.51658L33.0097 26.1945C33.0044 26.7895 32.1681 26.9121 31.9921 26.3432C29.2371 17.444 20.982 10.9439 11.1676 10.8581C7.21013 10.8237 3.49026 11.8402 0.26606 13.6416C0.101056 13.7337 0 13.9097 0 14.0989V32.2446C0 32.5309 0.230607 32.7635 0.516547 32.7661L26.1945 32.9904C26.7899 32.9957 26.9121 33.8317 26.3436 34.0079C17.444 36.763 10.9439 45.0178 10.8581 54.8322C10.8236 58.7899 11.8405 62.5094 13.6416 65.734C13.7341 65.899 13.91 66 14.0989 66H32.2446C32.5309 66 32.7635 65.7694 32.7661 65.4832L32.9904 39.8053C32.9957 39.2102 33.832 39.0879 34.008 39.6565C36.763 48.5561 45.0178 55.0558 54.8322 55.1416C58.79 55.1761 62.5095 54.1596 65.734 52.3581C65.899 52.266 66.0001 52.0901 66.0001 51.9009V33.7551C66.0001 33.4692 65.7695 33.2363 65.4832 33.234Z" fill="white"/>
</g>
<defs>
<clipPath id="clip0_7_387">
<rect width="66" height="66" fill="white"/>
</clipPath>
</defs>
</svg>
