<svg width="66" height="66" viewBox="0 0 66 66" fill="none" xmlns="http://www.w3.org/2000/svg">
<g clip-path="url(#clip0_7_389)">
<path fill-rule="evenodd" clip-rule="evenodd" d="M22.0001 43.4787V22.5213C22.0001 22.2334 22.2334 22.0001 22.5213 22.0001H43.479C43.767 22.0001 44.0002 22.2334 44.0002 22.5213V43.4787C44.0002 43.7666 43.767 43.9999 43.479 43.9999H22.5213C22.2334 43.9999 22.0001 43.7666 22.0001 43.4787ZM66.0003 22.0001C66.0003 10.0264 56.4354 0.287265 44.5294 0.00629531C44.2388 -0.000662664 44.0002 0.237896 44.0002 0.528806V14.5206C44.0002 15.1021 43.1881 15.2482 42.9913 14.7012C39.9126 6.13826 31.5918 0 22.0001 0C10.0268 0 0.287265 9.56489 0.00629531 21.4706C-0.000662664 21.7616 0.238228 22.0001 0.529137 22.0001H14.521C15.1024 22.0001 15.2486 22.8122 14.7012 23.009C6.13859 26.0878 0 34.4082 0 43.9999C0 55.9736 9.56522 65.7127 21.471 65.994C21.7616 66.0007 22.0001 65.7621 22.0001 65.4712V51.4794C22.0001 50.8979 22.8122 50.7518 23.009 51.2988C26.0878 59.8617 34.4085 66 44.0002 66C55.9736 66 65.7131 56.4351 65.994 44.5294C66.001 44.2384 65.7621 43.9999 65.4712 43.9999H51.4797C50.8979 43.9999 50.7518 43.1878 51.2991 42.9913C59.8617 39.9122 66.0003 31.5918 66.0003 22.0001Z" fill="white"/>
</g>
<defs>
<clipPath id="clip0_7_389">
<rect width="66" height="66" fill="white"/>
</clipPath>
</defs>
</svg>
