<svg width="66" height="66" viewBox="0 0 66 66" fill="none" xmlns="http://www.w3.org/2000/svg">
<g clip-path="url(#clip0_7_388)">
<path fill-rule="evenodd" clip-rule="evenodd" d="M43.4711 0C43.762 0 44.0005 0.238558 43.994 0.529136C43.7126 12.4349 33.9734 22 22.0001 22C10.0265 22 0.287363 12.4349 0.00624624 0.529136C-0.000563262 0.238558 0.237995 0 0.528904 0H43.4711ZM22.5289 66C22.238 66 21.9995 65.7614 22.006 65.4709C22.2874 53.5651 32.0265 44 43.9999 44C55.9735 44 65.7126 53.5651 65.9938 65.4709C66.0006 65.7614 65.762 66 65.4711 66H22.5289ZM66 43.4711C66 43.762 65.7614 44.0005 65.4709 43.994C53.5651 43.7126 44 33.9734 44 22.0001C44 10.0265 53.5651 0.287363 65.4709 0.00624624C65.7614 -0.000563262 66 0.237995 66 0.528904V43.4711ZM0 22.5289C0 22.238 0.238558 21.9995 0.529136 22.006C12.4349 22.2874 22 32.0265 22 43.9999C22 55.9735 12.4349 65.7126 0.529136 65.9938C0.238558 66.0006 0 65.762 0 65.4711V22.5289Z" fill="white"/>
</g>
<defs>
<clipPath id="clip0_7_388">
<rect width="66" height="66" fill="white"/>
</clipPath>
</defs>
</svg>
