<?xml version="1.0" encoding="utf-8"?>
<!-- Generator: Adobe Illustrator 27.4.0, SVG Export Plug-In . SVG Version: 6.00 Build 0)  -->
<svg version="1.1" id="Layer_1" xmlns="http://www.w3.org/2000/svg" xmlns:xlink="http://www.w3.org/1999/xlink" x="0px" y="0px"
	 viewBox="0 0 66 66" style="enable-background:new 0 0 66 66;" xml:space="preserve">
<style type="text/css">
	.st0{clip-path:url(#SVGID_00000005962546923664921400000009655770521298017422_);}
	.st1{fill-rule:evenodd;clip-rule:evenodd;fill:#202A35;}
</style>
<g>
	<defs>
		<rect id="SVGID_1_" width="66" height="66"/>
	</defs>
	<clipPath id="SVGID_00000176757191229061310670000018126769672589247409_">
		<use xlink:href="#SVGID_1_"  style="overflow:visible;"/>
	</clipPath>
	<g style="clip-path:url(#SVGID_00000176757191229061310670000018126769672589247409_);">
		<path class="st1" d="M22.1,43.5v-21c0-0.3,0.2-0.5,0.5-0.5h20.8c0.3,0,0.5,0.2,0.5,0.5v21c0,0.3-0.2,0.5-0.5,0.5H22.6
			C22.3,44,22.1,43.8,22.1,43.5z M66,33c0-8.8-5.2-16.4-12.7-19.9c-0.1-0.1-0.2-0.1-0.2-0.2C49.6,5.3,41.9,0,33,0
			S16.4,5.3,12.9,12.9c-0.1,0.1-0.1,0.2-0.2,0.2C5.2,16.6,0,24.2,0,33s5.2,16.4,12.7,19.9c0.1,0.1,0.2,0.1,0.2,0.2
			C16.4,60.7,24.1,66,33,66c8.9,0,16.6-5.3,20.1-12.9c0.1-0.1,0.1-0.2,0.2-0.2C60.8,49.4,66,41.8,66,33z"/>
	</g>
</g>
</svg>
