<svg width="44" height="44" viewBox="0 0 44 44" fill="none" xmlns="http://www.w3.org/2000/svg">
<rect width="44" height="44" rx="22" fill="#D55127"/>
<path d="M23.8973 21.3808L28.3109 16.925C28.5204 16.7139 28.6382 16.4274 28.6385 16.1286C28.6388 15.8298 28.5214 15.5432 28.3123 15.3317C28.1032 15.1202 27.8195 15.0013 27.5235 15.001C27.2275 15.0007 26.9436 15.1192 26.7341 15.3303L22.3204 19.7861L17.9068 15.3303C17.6973 15.1188 17.4132 15 17.117 15C16.8207 15 16.5366 15.1188 16.3272 15.3303C16.1177 15.5417 16 15.8286 16 16.1276C16 16.4267 16.1177 16.7135 16.3272 16.925L20.7408 21.3808L16.3272 25.8365C16.1177 26.048 16 26.3348 16 26.6339C16 26.933 16.1177 27.2198 16.3272 27.4312C16.5366 27.6427 16.8207 27.7615 17.117 27.7615C17.4132 27.7615 17.6973 27.6427 17.9068 27.4312L22.3204 22.9755L26.7341 27.4312C26.9436 27.6427 27.2277 27.7615 27.5239 27.7615C27.8202 27.7615 28.1043 27.6427 28.3137 27.4312C28.5232 27.2198 28.6409 26.933 28.6409 26.6339C28.6409 26.3348 28.5232 26.048 28.3137 25.8365L23.8973 21.3808Z" fill="white"/>
</svg>
