<svg width="44" height="44" viewBox="0 0 44 44" fill="none" xmlns="http://www.w3.org/2000/svg">
<rect x="-9.11279" y="22" width="44" height="44" rx="22" transform="rotate(-45 -9.11279 22)" fill="#D55127"/>
<path d="M30.1031 21.9108C30.4286 22.2363 30.4286 22.7639 30.1031 23.0894L22.4535 30.739C22.1281 31.0644 21.6004 31.0644 21.275 30.739C20.9496 30.4135 20.9496 29.8859 21.275 29.5604L27.5019 23.3332L13.4861 23.3334C13.0259 23.3334 12.6528 22.9603 12.6528 22.5001C12.6528 22.0399 13.0259 21.6668 13.4861 21.6668L27.5019 21.6666L21.275 15.4397C20.9626 15.1273 20.9501 14.6286 21.2375 14.3012L21.275 14.2612C21.6004 13.9358 22.1281 13.9358 22.4535 14.2612L30.1031 21.9108Z" fill="white"/>
</svg>
