<svg width="20" height="19" viewBox="0 0 20 19" fill="none" xmlns="http://www.w3.org/2000/svg">
<path d="M19.7175 10.1346C20.068 9.78409 20.068 9.21587 19.7175 8.8654L11.4795 0.627358C11.129 0.276888 10.5608 0.276887 10.2103 0.627357C9.85987 0.977827 9.85987 1.54605 10.2103 1.89652L16.9163 8.60284L1.82231 8.60254C1.32667 8.60254 0.924871 9.00434 0.924871 9.49998C0.924872 9.99562 1.32667 10.3974 1.82231 10.3974L16.9163 10.3976L10.2103 17.1034C9.87389 17.4399 9.86043 17.977 10.17 18.3295L10.2103 18.3726C10.5608 18.7231 11.129 18.7231 11.4795 18.3726L19.7175 10.1346Z" fill="#D55127"/>
</svg>
