<svg width="555" height="555" viewBox="0 0 555 555" fill="none" xmlns="http://www.w3.org/2000/svg">
<path fill-rule="evenodd" clip-rule="evenodd" d="M330.734 38.0547C280.024 88.7937 280.024 171.055 330.734 221.794C381.444 272.533 463.661 272.533 514.369 221.794L330.734 38.0547Z" fill="white" fill-opacity="0.05"/>
<path fill-rule="evenodd" clip-rule="evenodd" d="M8.66797 0.000732422V259.847C68.8933 259.847 119.54 218.821 134.221 163.179C134.653 161.54 137.066 161.864 137.066 163.558V259.847C208.781 259.847 266.917 201.68 266.917 129.925C266.917 58.1697 208.781 0.000732422 137.066 0.000732422V96.2912C137.066 97.9853 134.653 98.3076 134.221 96.6703C119.54 41.0263 68.8933 0.000732422 8.66797 0.000732422Z" fill="white" fill-opacity="0.05"/>
<path fill-rule="evenodd" clip-rule="evenodd" d="M422.007 551.443C493.721 551.443 551.857 493.275 551.857 421.519H455.621C453.928 421.519 453.606 419.107 455.242 418.674C510.855 403.983 551.857 353.308 551.857 293.048H292.156C292.156 353.308 333.159 403.983 388.771 418.674C390.407 419.107 390.085 421.519 388.392 421.519H292.156C292.156 493.275 350.292 551.443 422.007 551.443Z" fill="white" fill-opacity="0.05"/>
<path fill-rule="evenodd" clip-rule="evenodd" d="M129.85 389.338V293.048C58.136 293.048 0 351.217 0 422.972C0 494.727 58.136 552.896 129.85 552.896V456.605C129.85 454.911 132.264 454.589 132.696 456.226C147.377 511.87 198.023 552.896 258.249 552.896V293.048C198.023 293.048 147.377 334.073 132.696 389.717C132.264 391.355 129.85 391.032 129.85 389.338Z" fill="white" fill-opacity="0.05"/>
</svg>
