<svg width="49" height="50" viewBox="0 0 49 50" fill="none" xmlns="http://www.w3.org/2000/svg">
<rect y="0.833008" width="49" height="49" rx="24.5" fill="white"/>
<g clip-path="url(#clip0_864_3025)">
<path fill-rule="evenodd" clip-rule="evenodd" d="M26.8994 15.7865C24.9528 17.7342 24.9528 20.8919 26.8994 22.8396C28.846 24.7872 32.0019 24.7872 33.9484 22.8396L26.8994 15.7865Z" fill="#D55127"/>
<path fill-rule="evenodd" clip-rule="evenodd" d="M14.5352 14.3258V24.3003C16.847 24.3003 18.7911 22.7255 19.3546 20.5896C19.3712 20.5267 19.4639 20.5391 19.4639 20.6042V24.3003C22.2167 24.3003 24.4483 22.0675 24.4483 19.3131C24.4483 16.5587 22.2167 14.3258 19.4639 14.3258V18.022C19.4639 18.0871 19.3712 18.0994 19.3546 18.0366C18.7911 15.9006 16.847 14.3258 14.5352 14.3258Z" fill="#D55127"/>
<path fill-rule="evenodd" clip-rule="evenodd" d="M30.4024 35.4936C33.1553 35.4936 35.3869 33.2607 35.3869 30.5063H31.6928C31.6278 30.5063 31.6154 30.4137 31.6782 30.3971C33.813 29.8331 35.3869 27.8879 35.3869 25.5748H25.418C25.418 27.8879 26.9919 29.8331 29.1266 30.3971C29.1895 30.4137 29.1771 30.5063 29.1121 30.5063H25.418C25.418 33.2607 27.6496 35.4936 30.4024 35.4936Z" fill="#D55127"/>
<path fill-rule="evenodd" clip-rule="evenodd" d="M19.1876 29.271V25.5748C16.4347 25.5748 14.2031 27.8077 14.2031 30.5621C14.2031 33.3165 16.4347 35.5493 19.1876 35.5493V31.8531C19.1876 31.7881 19.2802 31.7757 19.2968 31.8386C19.8604 33.9745 21.8045 35.5493 24.1163 35.5493V25.5748C21.8045 25.5748 19.8604 27.1496 19.2968 29.2855C19.2802 29.3484 19.1876 29.336 19.1876 29.271Z" fill="#D55127"/>
</g>
<defs>
<clipPath id="clip0_864_3025">
<rect width="21.3043" height="21.3043" fill="white" transform="translate(14.2031 14.3257)"/>
</clipPath>
</defs>
</svg>

