<svg width="146" height="146" viewBox="0 0 146 146" fill="none" xmlns="http://www.w3.org/2000/svg">
<g clip-path="url(#clip0_19_1255)">
<path fill-rule="evenodd" clip-rule="evenodd" d="M87.0038 10.0107C73.6638 23.3583 73.6638 44.9982 87.0038 58.3458C100.344 71.6934 121.972 71.6934 135.311 58.3458L87.0038 10.0107Z" fill="#D55127"/>
<path fill-rule="evenodd" clip-rule="evenodd" d="M2.28003 0.000244141V68.3562C18.1231 68.3562 31.4463 57.5639 35.3083 42.9265C35.422 42.4953 36.0569 42.5805 36.0569 43.0262V68.3562C54.9223 68.3562 70.2157 53.0546 70.2157 34.1785C70.2157 15.3023 54.9223 0.000244141 36.0569 0.000244141V25.3307C36.0569 25.7764 35.422 25.8612 35.3083 25.4304C31.4463 10.7926 18.1231 0.000244141 2.28003 0.000244141Z" fill="#D55127"/>
<path fill-rule="evenodd" clip-rule="evenodd" d="M111.014 145.064C129.88 145.064 145.173 129.762 145.173 110.886H119.857C119.412 110.886 119.327 110.251 119.757 110.138C134.387 106.273 145.173 92.9423 145.173 77.0902H76.8555C76.8555 92.9423 87.6417 106.273 102.271 110.138C102.702 110.251 102.617 110.886 102.172 110.886H76.8555C76.8555 129.762 92.1489 145.064 111.014 145.064Z" fill="#D55127"/>
<path fill-rule="evenodd" clip-rule="evenodd" d="M34.159 102.421V77.0901C15.2935 77.0901 0.00012207 92.3922 0.00012207 111.268C0.00012207 130.144 15.2935 145.447 34.159 145.447V120.116C34.159 119.67 34.7938 119.586 34.9075 120.016C38.7695 134.654 52.0927 145.447 67.9358 145.447V77.0901C52.0927 77.0901 38.7695 87.8824 34.9075 102.52C34.7938 102.951 34.159 102.866 34.159 102.421Z" fill="#D55127"/>
</g>
<defs>
<clipPath id="clip0_19_1255">
<rect width="146" height="146" fill="white"/>
</clipPath>
</defs>
</svg>